<?xml version="1.0" encoding="UTF-8" standalone="no"?>
<!-- Generator: Adobe Illustrator 14.0.0, SVG Export Plug-In . SVG Version: 6.00 Build 43363)  -->

<svg
   xmlns:dc="http://purl.org/dc/elements/1.1/"
   xmlns:cc="http://creativecommons.org/ns#"
   xmlns:rdf="http://www.w3.org/1999/02/22-rdf-syntax-ns#"
   xmlns:svg="http://www.w3.org/2000/svg"
   xmlns="http://www.w3.org/2000/svg"
   xmlns:xlink="http://www.w3.org/1999/xlink"
   xmlns:sodipodi="http://sodipodi.sourceforge.net/DTD/sodipodi-0.dtd"
   xmlns:inkscape="http://www.inkscape.org/namespaces/inkscape"
   version="1.1"
   id="Layer_1"
   x="0px"
   y="0px"
   width="108"
   height="68"
   viewBox="0 0 108 68.000001"
   enable-background="new 0 0 612 792"
   xml:space="preserve"
   inkscape:version="0.48.2 r9819"
   sodipodi:docname="pk_card_diners.svg"
   inkscape:export-filename="/Users/bpenrod/trees/opentable/PaymentKit-Droid/library/src/main/res/drawable-ldpi/pk_card_diners.png"
   inkscape:export-xdpi="34.169998"
   inkscape:export-ydpi="34.169998"><metadata
   id="metadata95"><rdf:RDF><cc:Work
       rdf:about=""><dc:format>image/svg+xml</dc:format><dc:type
         rdf:resource="http://purl.org/dc/dcmitype/StillImage" /><dc:title></dc:title></cc:Work></rdf:RDF></metadata><defs
   id="defs93"><linearGradient
   id="linearGradient3997"><stop
     style="stop-color:#ffffff;stop-opacity:1;"
     offset="0"
     id="stop3999" /><stop
     style="stop-color:#efefef;stop-opacity:1;"
     offset="1"
     id="stop4001" /></linearGradient>
	
	
	
	
	
	
	
	
	
	
	
	
	
	
	
	
	
	
	
	
	
	
	
	
	
	
	
	
	
	
	
	
	
	
	
	
	
	
	
	
	
	
	
<linearGradient
   inkscape:collect="always"
   xlink:href="#linearGradient3997"
   id="linearGradient4003"
   x1="-7.9411762e-07"
   y1="34.00626"
   x2="-7.9411762e-07"
   y2="78.891068"
   gradientUnits="userSpaceOnUse"
   gradientTransform="matrix(0.98859681,0,0,0.98188901,0.61577325,0.61577178)" /></defs><sodipodi:namedview
   pagecolor="#ffffff"
   bordercolor="#666666"
   borderopacity="1"
   objecttolerance="10"
   gridtolerance="10"
   guidetolerance="10"
   inkscape:pageopacity="0"
   inkscape:pageshadow="2"
   inkscape:window-width="640"
   inkscape:window-height="480"
   id="namedview91"
   showgrid="false"
   fit-margin-top="0"
   fit-margin-left="0"
   fit-margin-right="0"
   fit-margin-bottom="0"
   inkscape:zoom="5.1111111"
   inkscape:cx="46.173913"
   inkscape:cy="41.401662"
   inkscape:current-layer="Layer_1" />
<rect
   style="fill:url(#linearGradient4003);fill-opacity:1;fill-rule:nonzero;stroke:#c9c9c9;stroke-width:1.23154652;stroke-miterlimit:4;stroke-opacity:1;stroke-dasharray:none"
   id="rect3995"
   width="106.76846"
   height="66.768456"
   x="0.61577249"
   y="0.61577225"
   inkscape:export-filename="/Users/bpenrod/Downloads/dc_card.png"
   inkscape:export-xdpi="90"
   inkscape:export-ydpi="90" /><path
   style="fill:#004c98;fill-rule:evenodd"
   inkscape:connector-curvature="0"
   id="path11"
   d="m 25.645173,44.870307 h 3.62211 c 3.222746,0 4.091916,2.255866 4.091916,3.728342 0,2.830199 -1.927512,5.149122 -6.047832,5.149122 h -3.545419 v -0.224393 c 0.686815,-0.126683 0.897006,-0.168722 1.135034,-1.037324 l 1.669033,-5.920581 c 0.04204,-0.153951 0.153952,-0.587968 0.153952,-0.868602 0,-0.476056 -0.364143,-0.54593 -1.078794,-0.602738 v -0.223826 l 0,0 z"
   clip-rule="evenodd" /><path
   style="fill:#004c98;fill-rule:evenodd"
   inkscape:connector-curvature="0"
   id="path13"
   d="m 36.410952,52.304267 c -0.546498,0.826564 -1.16287,1.598023 -1.947964,1.598023 -0.65841,0 -0.65841,-0.61694 -0.65841,-0.868602 0,-0.658978 1.10663,-4.133954 1.10663,-4.527069 0,-0.294268 -0.111913,-0.364142 -0.882805,-0.364142 v -0.224394 c 0.532864,-0.02897 1.695734,-0.252798 2.242232,-0.350508 l 0.04204,0.02784 -1.232744,4.512299 c -0.05624,0.196557 -0.224394,0.756689 -0.224394,0.92541 0,0.09771 0.09771,0.209624 0.224394,0.209624 0.167585,0 0.574334,-0.279498 1.148668,-1.092996 l 0.182355,0.154519 0,0 z"
   clip-rule="evenodd" /><path
   style="fill:#004c98;fill-rule:evenodd"
   inkscape:connector-curvature="0"
   id="path15"
   d="m 36.130886,46.068398 c -0.34994,0 -0.672613,-0.238595 -0.672613,-0.728853 0,-0.490257 0.322673,-0.756689 0.658979,-0.756689 0.462421,0 0.700449,0.461853 0.700449,0.769755 0,0.281202 -0.223826,0.715787 -0.686815,0.715787 l 0,0 z"
   clip-rule="evenodd" /><path
   style="fill:#004c98;fill-rule:evenodd"
   inkscape:connector-curvature="0"
   id="path17"
   d="m 42.996761,52.289497 c -0.700448,0.938476 -1.190706,1.583253 -1.947395,1.583253 -0.644777,0 -0.672613,-0.420383 -0.672613,-0.826564 0,-0.336306 1.036755,-3.75561 1.036755,-4.31631 0,-0.251661 -0.08408,-0.448219 -0.350508,-0.448219 -0.673181,0 -1.555417,1.204909 -2.059876,1.989434 -0.644777,0.967449 -0.827132,1.570187 -1.401466,3.476112 h -1.050957 c 0.434585,-1.584389 1.373061,-4.863375 1.373061,-5.157075 0,-0.21076 -0.140317,-0.365279 -0.897006,-0.365279 v -0.223257 c 0.756689,-0.140886 1.513379,-0.280634 2.270068,-0.435154 l 0.04204,0.02784 -0.897006,2.929046 0.0284,0.02784 c 0.658411,-1.037323 1.947964,-2.984719 3.110834,-2.984719 0.644776,0 0.96688,0.336307 0.96688,0.925411 0,0.602738 -1.120832,4.062944 -1.120832,4.483895 0,0.210759 0.19599,0.238595 0.224394,0.238595 0.280634,0 0.630574,-0.449355 1.149236,-1.107197 l 0.195989,0.182355 0,0 z"
   clip-rule="evenodd" /><path
   style="fill:#004c98;fill-rule:evenodd"
   inkscape:connector-curvature="0"
   id="path19"
   d="m 47.943645,52.388344 c -0.153951,0.224393 -1.429301,1.513378 -2.830767,1.513378 -1.47134,0 -1.919559,-1.094131 -1.919559,-1.976367 0,-2.003636 2.213827,-4.358349 4.189627,-4.358349 0.714651,0 1.149236,0.336307 1.149236,0.953247 0,1.107198 -1.31739,2.241095 -3.587457,2.564336 l -0.391979,0.05567 c -0.07044,0.295404 -0.140317,0.574902 -0.140317,0.855536 0,0.953247 0.728853,1.274783 1.317389,1.274783 0.756689,0 1.345226,-0.476055 2.045674,-1.050957 l 0.168153,0.168721 0,0 z"
   clip-rule="evenodd" /><path
   style="fill:#004c98;fill-rule:evenodd"
   inkscape:connector-curvature="0"
   id="path21"
   d="m 48.40493,53.747771 1.135034,-4.091916 c 0.139749,-0.51923 0.224394,-0.995285 0.224394,-1.121968 0,-0.195421 -0.07044,-0.419247 -0.50446,-0.419247 -0.153951,0 -0.30847,0.0409 -0.462421,0.06987 v -0.238596 c 0.714651,-0.09885 1.541783,-0.280634 2.171789,-0.378344 l 0.04204,0.02784 -0.686246,2.788161 0.02784,0.02897 0.112481,-0.280634 c 0.461853,-0.924274 1.527012,-2.564335 2.409816,-2.564335 0.322105,0 0.672613,0.209623 0.672613,0.686814 0,0.727717 -0.50446,0.727717 -0.658411,0.727717 -0.602738,0 -0.392546,-0.503891 -0.728853,-0.503891 -0.434017,0 -1.274782,1.555417 -1.386695,1.76504 -0.532864,1.008351 -0.728853,1.640061 -1.303187,3.503948 h -1.065728 l 0,5.68e-4 z"
   clip-rule="evenodd" /><path
   style="fill:#004c98;fill-rule:evenodd"
   inkscape:connector-curvature="0"
   id="path23"
   d="m 52.912685,51.701529 c 0.09771,0.615804 0.322104,1.905357 1.45657,1.905357 0.784525,0 1.008919,-0.672612 1.008919,-1.135034 0,-0.924274 -1.66733,-2.270067 -1.66733,-3.348861 0,-0.435153 0.19599,-1.555416 1.680964,-1.555416 0.630574,0 0.911208,0.238595 1.331591,0.238595 0.238028,0 0.322104,-0.140885 0.391979,-0.252798 h 0.196557 l -0.280066,1.948532 h -0.224393 c -0.07044,-0.798728 -0.406749,-1.612225 -1.317389,-1.612225 -0.308471,0 -0.75669,0.126683 -0.75669,0.813497 0,0.883373 1.709368,2.130319 1.709368,3.321025 0,1.527581 -1.302619,1.878657 -2.087712,1.878657 -0.419815,0 -0.981083,-0.266431 -1.386696,-0.266431 -0.195989,0 -0.252229,0.139749 -0.336306,0.294268 h -0.224394 l 0.280634,-2.22803 h 0.224394 l 0,-0.0011 z"
   clip-rule="evenodd" /><path
   style="fill:#004c98;fill-rule:evenodd"
   inkscape:connector-curvature="0"
   id="path25"
   d="m 68.324263,47.18923 c -0.0284,-0.392547 -0.153951,-2.270068 -2.158155,-2.270068 -2.802931,0 -4.231665,3.3909 -4.231665,5.451344 0,1.834914 0.770323,2.998921 2.438221,2.998921 1.583252,0 2.564335,-0.995285 3.236948,-1.654264 l 0.238028,0.196558 c -0.518662,0.61694 -1.765609,2.08828 -3.811851,2.08828 -1.625291,0 -3.670965,-0.981083 -3.670965,-3.783446 0,-2.705221 2.479691,-5.801852 5.689371,-5.801852 1.008919,0 1.863319,0.336306 2.186559,0.336306 0.406181,0 0.490258,-0.167585 0.560132,-0.30847 h 0.294268 l -0.518093,2.789297 -0.252798,-0.04261 0,0 z"
   clip-rule="evenodd" /><path
   style="fill:#004c98;fill-rule:evenodd"
   inkscape:connector-curvature="0"
   id="path27"
   d="m 71.506107,52.149748 c -0.714651,1.078225 -1.261149,1.751974 -2.129751,1.751974 -0.61694,0 -0.67318,-0.477191 -0.67318,-0.868602 0,-0.295404 2.03204,-7.610066 2.03204,-7.904334 0,-0.364143 -0.588536,-0.364143 -0.953247,-0.349373 V 44.55502 c 0.728853,-0.08408 1.457138,-0.21076 2.186559,-0.378345 l 0.06988,0.06988 -2.116117,8.112822 c -0.0284,0.126682 -0.140317,0.505027 -0.140317,0.658978 0,0.08408 0,0.280634 0.210191,0.280634 0.350509,0 0.644777,-0.392547 1.331592,-1.275919 l 0.182355,0.126683 0,0 z"
   clip-rule="evenodd" /><path
   style="fill:#004c98;fill-rule:evenodd"
   inkscape:connector-curvature="0"
   id="path29"
   d="m 77.857865,52.234393 c -0.883372,1.274783 -1.246946,1.638925 -1.948531,1.638925 -0.630007,0 -0.658411,-0.518093 -0.658411,-0.727717 0,-0.252798 0.280066,-1.430438 0.602738,-2.578538 h -0.04204 c -0.952678,1.583253 -1.989434,3.335227 -3.250582,3.335227 -0.505028,0 -0.770892,-0.210759 -0.770892,-0.827699 0,-0.615805 1.06516,-4.147589 1.06516,-4.525934 0,-0.40618 -0.266432,-0.40618 -0.840766,-0.40618 v -0.196558 c 0.700449,-0.08408 1.401466,-0.210759 2.101914,-0.378344 l 0.04204,0.02784 -1.275351,5.087201 c -0.04147,0.181787 0,0.476055 0.294836,0.476055 0.602738,0 1.484974,-1.316821 1.961598,-2.046242 0.686814,-1.036187 0.995284,-1.919559 1.541782,-3.418736 h 1.036755 l -1.106629,4.189627 c -0.08408,0.279498 -0.267,0.896438 -0.267,1.107198 0,0.06987 0.0142,0.224394 0.168153,0.224394 0.266432,0 0.658979,-0.490258 1.149236,-1.107198 l 0.195989,0.126683 0,0 z"
   clip-rule="evenodd" /><path
   style="fill:#004c98;fill-rule:evenodd"
   inkscape:connector-curvature="0"
   id="path31"
   d="m 79.14685,44.498211 c 0.700449,-0.08408 1.415668,-0.181787 2.143953,-0.321536 l 0.07044,0.06988 c -0.30847,1.148099 -0.734533,2.714878 -1.210589,4.298131 l 0.02784,0.0142 c 0.462422,-0.728853 1.181049,-1.430438 2.442766,-1.430438 0.981083,0 1.612793,1.110606 1.612793,2.133727 0,2.214395 -2.339942,4.638982 -4.484463,4.638982 -0.743055,0 -1.821848,-0.435153 -1.821848,-0.743623 v -0.05567 l 1.905925,-7.020963 c 0.09771,-0.39141 0.224393,-0.742487 0.224393,-0.938476 0,-0.322673 -0.09828,-0.392547 -0.911208,-0.406181 v -0.238033 l 0,0 z"
   clip-rule="evenodd" /><path
   style="fill:#004c98;fill-rule:evenodd"
   inkscape:connector-curvature="0"
   id="path69"
   d="m 62.029313,41.712323 c 7.653241,0 13.856729,-6.202921 13.856729,-13.855594 C 75.886042,20.204056 69.682554,14 62.029313,14 H 44.514116 c -7.652673,0 -13.856729,6.203488 -13.856729,13.856729 0,7.652673 6.204056,13.855594 13.856729,13.855594 h 17.515197 l 0,0 z"
   clip-rule="evenodd" /><path
   style="fill:#eeeeee;fill-rule:evenodd;fill-opacity:1"
   inkscape:connector-curvature="0"
   id="path71"
   d="m 44.514116,41.402716 c 7.481112,0 13.546555,-6.064307 13.546555,-13.545987 0,-7.481679 -6.064875,-13.546554 -13.546555,-13.546554 -7.481679,0 -13.547123,6.064875 -13.547123,13.546554 0,7.48168 6.065444,13.545987 13.547123,13.545987 l 0,0 z"
   clip-rule="evenodd" /><path
   style="fill:#004c98;fill-rule:evenodd"
   inkscape:connector-curvature="0"
   id="path73"
   d="m 41.779355,20.035903 c -3.231267,1.129353 -5.548486,4.204397 -5.548486,7.820826 0,3.62211 2.32574,6.701699 5.565529,7.826507 l -0.01704,-15.647333 0,0 z"
   clip-rule="evenodd" /><path
   style="fill:#004c98;fill-rule:evenodd"
   inkscape:connector-curvature="0"
   id="path75"
   d="m 52.796796,27.857298 c 0,3.622109 -2.325172,6.701698 -5.565529,7.826507 l 0.01704,-15.647334 c 3.2307,1.129353 5.548487,4.204397 5.548487,7.820827 l 0,0 z"
   clip-rule="evenodd" /><path
   style="fill:#ffffff;fill-rule:evenodd;fill-opacity:1"
   inkscape:connector-curvature="0"
   id="path77"
   d="m 26.568311,51.477704 c -0.126115,0.461853 -0.307902,1.078225 -0.307902,1.302619 0,0.462421 0.336307,0.547065 0.994717,0.547065 4.414589,0 4.548089,-4.043061 4.548089,-4.89746 0,-1.415668 -0.202807,-3.13867 -2.683066,-3.13867 -0.798727,0 -0.8544,0.209623 -0.911208,0.406181 l -1.64063,5.780265 0,0 z"
   clip-rule="evenodd" /><path
   style="fill:#ffffff;fill-rule:evenodd;fill-opacity:1"
   inkscape:connector-curvature="0"
   id="path79"
   d="m 44.650457,50.832927 c 2.887008,-0.589104 2.956882,-2.270068 2.956882,-2.38198 0,-0.295404 -0.140317,-0.561268 -0.490825,-0.561268 -0.756689,0 -1.709368,1.079361 -2.22803,2.326876 l -0.238027,0.616372 0,0 z"
   clip-rule="evenodd" /><path
   style="fill:#ffffff;fill-rule:evenodd;fill-opacity:1"
   inkscape:connector-curvature="0"
   id="path81"
   d="m 82.07476,47.8715 c -1.541782,0 -2.748395,2.755212 -2.942112,5.244561 -0.0074,0.09771 0,0.462421 0.658979,0.462421 1.919559,0 3.25115,-2.956882 3.25115,-4.133955 0,-0.433448 -0.08521,-1.573027 -0.968017,-1.573027 l 0,0 z"
   clip-rule="evenodd" />
</svg>