<?xml version="1.0" encoding="UTF-8" standalone="no"?>
<!-- Creator: CorelDRAW -->

<svg
   xmlns:dc="http://purl.org/dc/elements/1.1/"
   xmlns:cc="http://creativecommons.org/ns#"
   xmlns:rdf="http://www.w3.org/1999/02/22-rdf-syntax-ns#"
   xmlns:svg="http://www.w3.org/2000/svg"
   xmlns="http://www.w3.org/2000/svg"
   xmlns:xlink="http://www.w3.org/1999/xlink"
   xmlns:sodipodi="http://sodipodi.sourceforge.net/DTD/sodipodi-0.dtd"
   xmlns:inkscape="http://www.inkscape.org/namespaces/inkscape"
   xml:space="preserve"
   width="108"
   height="68"
   style="fill-rule:evenodd"
   viewBox="0 0 30.480001 19.191111"
   id="svg2"
   version="1.1"
   inkscape:version="0.48.2 r9819"
   sodipodi:docname="pk_card_jcb.svg"
   inkscape:export-filename="/Users/bpenrod/Downloads/jcb_card.png"
   inkscape:export-xdpi="90"
   inkscape:export-ydpi="90"><metadata
   id="metadata35"><rdf:RDF><cc:Work
       rdf:about=""><dc:format>image/svg+xml</dc:format><dc:type
         rdf:resource="http://purl.org/dc/dcmitype/StillImage" /><dc:title></dc:title></cc:Work></rdf:RDF></metadata><sodipodi:namedview
   pagecolor="#ffffff"
   bordercolor="#666666"
   borderopacity="1"
   objecttolerance="10"
   gridtolerance="10"
   guidetolerance="10"
   inkscape:pageopacity="0"
   inkscape:pageshadow="2"
   inkscape:window-width="640"
   inkscape:window-height="480"
   id="namedview33"
   showgrid="false"
   fit-margin-top="0"
   fit-margin-left="0"
   fit-margin-right="0"
   fit-margin-bottom="0"
   inkscape:zoom="5.0092593"
   inkscape:cx="46.014787"
   inkscape:cy="42.402161"
   inkscape:current-layer="svg2" />
 <defs
   id="defs4"><linearGradient
   id="linearGradient3782"><stop
     style="stop-color:#ffffff;stop-opacity:1;"
     offset="0"
     id="stop3784" /><stop
     style="stop-color:#efefef;stop-opacity:1;"
     offset="1"
     id="stop3786" /></linearGradient>
  <style
   type="text/css"
   id="style6">
   
    .fil0 {fill:white}
    .fil1 {fill:url(#id0)}
    .fil3 {fill:url(#id1)}
    .fil2 {fill:url(#id2)}
   
  </style>
  <linearGradient
   id="id0"
   gradientUnits="userSpaceOnUse"
   x1="75.414299"
   y1="43.334702"
   x2="106.25"
   y2="43.334702">
   <stop
   offset="0"
   style="stop-color:#007B40"
   id="stop9" />
   <stop
   offset="1"
   style="stop-color:#55B330"
   id="stop11" />
  </linearGradient>
  <linearGradient
   id="id1"
   gradientUnits="userSpaceOnUse"
   x1="40.8326"
   y1="43.334801"
   x2="71.666"
   y2="43.334801">
   <stop
   offset="0"
   style="stop-color:#6E2B2F"
   id="stop14" />
   <stop
   offset="1"
   style="stop-color:#E30138"
   id="stop16" />
  </linearGradient>
  <linearGradient
   id="id2"
   gradientUnits="userSpaceOnUse"
   x1="6.2494001"
   y1="43.334702"
   x2="37.081501"
   y2="43.334702">
   <stop
   offset="0"
   style="stop-color:#1D2970"
   id="stop19" />
   <stop
   offset="1"
   style="stop-color:#006DBA"
   id="stop21" />
  </linearGradient>
 <linearGradient
   inkscape:collect="always"
   xlink:href="#linearGradient3782"
   id="linearGradient3788"
   x1="-0.14111134"
   y1="-0.012010129"
   x2="-0.14111134"
   y2="19.005972"
   gradientUnits="userSpaceOnUse"
   gradientTransform="matrix(0.98635648,0,0,0.97833083,0.2079279,0.20792732)" />
  
  
  
  
  
 <linearGradient
   inkscape:collect="always"
   xlink:href="#id1"
   id="linearGradient3791"
   gradientUnits="userSpaceOnUse"
   x1="40.8326"
   y1="43.334801"
   x2="71.666"
   y2="43.334801"
   gradientTransform="matrix(0.14979084,0,0,0.14979084,6.8143856,3.1044443)" /><linearGradient
   inkscape:collect="always"
   xlink:href="#id2"
   id="linearGradient3794"
   gradientUnits="userSpaceOnUse"
   x1="6.2494001"
   y1="43.334702"
   x2="37.081501"
   y2="43.334702"
   gradientTransform="matrix(0.14979084,0,0,0.14979084,6.8143856,3.1044443)" /><linearGradient
   inkscape:collect="always"
   xlink:href="#id0"
   id="linearGradient3797"
   gradientUnits="userSpaceOnUse"
   x1="75.414299"
   y1="43.334702"
   x2="106.25"
   y2="43.334702"
   gradientTransform="matrix(0.14979084,0,0,0.14979084,6.8143856,3.1044443)" /></defs>
 <rect
   style="fill:url(#linearGradient3788);fill-opacity:1;fill-rule:nonzero;stroke:#c9c9c9;stroke-width:0.35277779;stroke-miterlimit:4;stroke-opacity:1;stroke-dasharray:none"
   id="rect3012"
   width="30.064146"
   height="18.775257"
   x="0.20792767"
   y="0.20792659"
   inkscape:export-xdpi="34.25"
   inkscape:export-ydpi="34.25"
   inkscape:export-filename="/Users/bpenrod/trees/opentable/PaymentKit-Droid/library/src/main/res/drawable-ldpi/pk_card_jcb.png" /><path
   style="fill:#ffffff;fill-opacity:0"
   inkscape:connector-curvature="0"
   id="path25"
   d="m 23.665556,13.465552 c 0,1.447414 -1.173117,2.621115 -2.621115,2.621115 l -14.2299955,0 0,-10.3607182 c 0,-1.4478184 1.1732817,-2.6214895 2.6212948,-2.6214895 l 14.2298007,-1.5e-5 0,10.3611077 1.5e-5,0 z"
   class="fil0" /><path
   inkscape:connector-curvature="0"
   style="fill:url(#linearGradient3797)"
   id="path27"
   d="m 19.026264,9.8231926 0.0093,0 0.01806,0 0.01807,0 0.01808,0 0.01807,0 0.01806,0 0.01808,0 0.01807,0 0.01808,0 0.01806,0 0.01807,0 0.01808,0 0.01807,0 0.01807,0 0.01808,0 0.01807,0 0.01807,0 0.01808,0 0.01806,0 0.01807,0 0.01808,0 0.01807,0 0.01806,0 0.01808,0 0.01807,0 0.01807,0 0.01808,0 0.01807,0 0.01807,0 0.01808,0 0.01807,0 0.01808,0 0.01807,0 0.01807,0 0.01808,0 0.01806,0 0.01807,0 0.01808,0 0.01807,0 0.01806,0 0.01808,0 0.01807,0 0.01807,0 0.01808,0 0.01806,0 0.01807,0 0.01808,0 0.01807,0 0.01806,0 0.01808,0 0.01807,0 0.01807,0 0.01808,0 0.01807,0 0.01807,0 0.01808,0 0.01807,0 0.01808,0 0.01807,0 0.01807,0 0.01504,0 0.003,7.49e-5 c 0.0056,1.348e-4 0.01165,3.894e-4 0.01806,7.34e-4 0.0058,3.145e-4 0.01186,7.19e-4 0.01807,0.00118 0.0059,4.344e-4 0.01201,9.437e-4 0.01808,0.0015 0.0061,5.542e-4 0.01213,0.00117 0.01807,0.00183 0.0062,6.89e-4 0.0123,0.00142 0.01806,0.0022 0.0065,8.688e-4 0.01257,0.00177 0.01808,0.00271 0.004,6.741e-4 0.0076,0.00136 0.01092,0.00207 l 0.0071,0.00162 c 0.0061,0.00141 0.01207,0.00294 0.01807,0.0046 0.0061,0.00168 0.01209,0.00345 0.01808,0.00536 0.0061,0.00193 0.01209,0.00398 0.01806,0.00616 0.0061,0.0022 0.01209,0.00452 0.01807,0.00697 0.0061,0.00249 0.0121,0.00511 0.01808,0.00783 0.0061,0.00279 0.0121,0.00568 0.01807,0.00872 0.0061,0.00309 0.0121,0.00632 0.01806,0.00968 0.0061,0.00343 0.01213,0.00703 0.01808,0.010725 0.0061,0.0038 0.01213,0.00771 0.01807,0.011789 0.0061,0.00419 0.01215,0.00851 0.01807,0.012972 0.0061,0.00463 0.01216,0.00941 0.01808,0.014335 0.0061,0.00512 0.01216,0.010411 0.01807,0.015833 0.0062,0.00568 0.01221,0.011474 0.01808,0.017466 0.0062,0.00631 0.01221,0.012822 0.01807,0.019488 0.0062,0.00709 0.01224,0.014365 0.01807,0.02184 0.0063,0.008 0.0123,0.0163 0.01808,0.02477 0.0063,0.0093 0.01236,0.01881 0.01807,0.02859 0.0064,0.01103 0.01246,0.02238 0.01807,0.03403 0.0067,0.01381 0.0127,0.02804 0.01808,0.04268 0.0072,0.01967 0.01329,0.04005 0.01806,0.0611 0.0083,0.03647 0.01272,0.07489 0.01272,0.115009 0,0.04031 -0.0044,0.0789 -0.01272,0.115489 -0.0048,0.02111 -0.01083,0.04155 -0.01806,0.06125 -0.0054,0.01468 -0.01143,0.02893 -0.01808,0.04278 -0.0056,0.01165 -0.01162,0.02302 -0.01807,0.03406 -0.0057,0.0098 -0.01173,0.01932 -0.01807,0.02861 -0.0058,0.0085 -0.01182,0.01675 -0.01808,0.02479 -0.0058,0.0075 -0.01185,0.01474 -0.01807,0.02182 -0.0059,0.0067 -0.01188,0.01317 -0.01807,0.01947 -0.0059,0.006 -0.01192,0.01179 -0.01808,0.01745 -0.0059,0.0054 -0.01192,0.01065 -0.01807,0.01576 -0.0059,0.0049 -0.01194,0.0097 -0.01808,0.01431 -0.0059,0.0044 -0.01195,0.0087 -0.01807,0.01293 -0.0059,0.0041 -0.01197,0.008 -0.01807,0.01174 -0.0059,0.0037 -0.01198,0.0073 -0.01808,0.01067 -0.0059,0.0033 -0.01197,0.0065 -0.01806,0.0096 -0.006,0.003 -0.01198,0.0059 -0.01807,0.0087 -0.006,0.0027 -0.012,0.0053 -0.01808,0.0078 -0.006,0.0024 -0.012,0.0047 -0.01807,0.0069 -0.006,0.0021 -0.012,0.0042 -0.01806,0.0061 -0.006,0.0019 -0.01201,0.0036 -0.01808,0.0053 -0.006,0.0016 -0.01201,0.0031 -0.01807,0.0045 l -0.0071,0.0016 c -0.0033,7.49e-4 -0.0069,0.0015 -0.01092,0.0022 -0.0055,9.73e-4 -0.01161,0.0019 -0.01808,0.0028 -0.0058,7.79e-4 -0.01185,0.0015 -0.01806,0.0022 -0.0059,6.59e-4 -0.01198,0.0013 -0.01807,0.0018 -0.0061,5.54e-4 -0.01213,0.001 -0.01808,0.0015 -0.0062,4.49e-4 -0.01227,8.39e-4 -0.01807,0.0011 -0.0064,3.3e-4 -0.01249,5.7e-4 -0.01806,7.04e-4 l -0.0097,1.2e-4 -0.0084,0 -0.01807,0 -0.01807,0 -0.01808,0 -0.01807,0 -0.01808,0 -0.01807,0 -0.01807,0 -0.01808,0 -0.01807,0 -0.01807,0 -0.01808,0 -0.01806,0 -0.01807,0 -0.01808,0 -0.01807,0 -0.01806,0 -0.01808,0 -0.01807,0 -0.01807,0 -0.01808,0 -0.01806,0 -0.01807,0 -0.01808,0 -0.01807,0 -0.01806,0 -0.01808,0 -0.01807,0 -0.01807,0 -0.01808,0 -0.01807,0 -0.01808,0 -0.01807,0 -0.01807,0 -0.01808,0 -0.01807,0 -0.01807,0 -0.01808,0 -0.01806,0 -0.01807,0 -0.01808,0 -0.01807,0 -0.01806,0 -0.01808,0 -0.01807,0 -0.01807,0 -0.01808,0 -0.01807,0 -0.01807,0 -0.01808,0 -0.01807,0 -0.01806,0 -0.01808,0 -0.01807,0 -0.01808,0 -0.01806,0 -0.01807,0 -0.01808,0 -0.01807,0 -0.01806,0 -0.0093,0 0,-0.9878404 z m 1.455008,-1.1180239 c 0.0073,0.033164 0.01116,0.068275 0.01116,0.1052581 0,0.036923 -0.0039,0.072019 -0.01116,0.1051531 -0.0047,0.021285 -0.01074,0.041747 -0.01808,0.061369 -0.0054,0.01432 -0.0114,0.028176 -0.01807,0.041552 -0.0056,0.011219 -0.01162,0.022109 -0.01806,0.032639 -0.0057,0.00932 -0.01176,0.018364 -0.01808,0.027142 -0.0058,0.008 -0.0118,0.015758 -0.01807,0.023292 -0.0058,0.00701 -0.01183,0.013811 -0.01807,0.020417 -0.0059,0.0062 -0.01188,0.012208 -0.01807,0.018035 -0.0059,0.00554 -0.01191,0.01092 -0.01808,0.016118 -0.0059,0.00497 -0.01192,0.00978 -0.01807,0.01444 -0.0059,0.00449 -0.01194,0.00882 -0.01807,0.013017 -0.0059,0.00404 -0.01197,0.00794 -0.01808,0.011699 -0.0059,0.00365 -0.01197,0.00717 -0.01806,0.010545 -0.0059,0.0033 -0.01197,0.00647 -0.01807,0.0095 -0.006,0.00297 -0.012,0.0058 -0.01808,0.00851 -0.006,0.00265 -0.01198,0.00517 -0.01807,0.00756 -0.006,0.00235 -0.012,0.00458 -0.01806,0.0067 -0.006,0.00208 -0.012,0.00404 -0.01807,0.00587 -0.006,0.00181 -0.01201,0.00352 -0.01808,0.00509 -0.006,0.00156 -0.012,0.003 -0.01807,0.00431 -0.006,0.00132 -0.01201,0.00249 -0.01806,0.00357 l -0.0044,7.939e-4 c -0.0035,6.141e-4 -0.0082,0.0013 -0.01369,0.00199 -0.0053,6.74e-4 -0.01146,0.00138 -0.01807,0.00204 -0.0057,5.842e-4 -0.0118,0.00115 -0.01807,0.00168 -0.0059,4.943e-4 -0.012,9.287e-4 -0.01808,0.00132 -0.0061,3.895e-4 -0.01215,7.19e-4 -0.01806,9.587e-4 -0.0063,2.546e-4 -0.01234,4.194e-4 -0.01807,4.494e-4 l -0.0029,1.5e-5 -0.0152,0 -0.01808,0 -0.01806,0 -0.01807,0 -0.01808,0 -0.01807,0 -0.01806,0 -0.01807,0 -0.01808,0 -0.01807,0 -0.01807,0 -0.01808,0 -0.01807,0 -0.01807,0 -0.01808,0 -0.01806,0 -0.01807,0 -0.01807,0 -0.01808,0 -0.01806,0 -0.01807,0 -0.01808,0 -0.01807,0 -0.01807,0 -0.01808,0 -0.01807,0 -0.01807,0 -0.01807,0 -0.01808,0 -0.01807,0 -0.01807,0 -0.01808,0 -0.01806,0 -0.01807,0 -0.01807,0 -0.01808,0 -0.01807,0 -0.01806,0 -0.01808,0 -0.01807,0 -0.01807,0 -0.01808,0 -0.01807,0 -0.01807,0 -0.01807,0 -0.01808,0 -0.01807,0 -0.01807,0 -0.01808,0 -0.01807,0 -0.01806,0 -0.01808,0 -0.01807,0 -0.01807,0 -0.0095,0 0,-0.9115822 0.0095,0 0.01807,0 0.01807,0 0.01808,0 0.01806,0 0.01807,0 0.01808,0 0.01807,0 0.01807,0 0.01808,0 0.01807,0 0.01807,0 0.01807,0 0.01808,0 0.01807,0 0.01807,0 0.01808,0 0.01806,0 0.01807,0 0.01808,0 0.01807,0 0.01807,0 0.01806,0 0.01808,0 0.01807,0 0.01807,0 0.01808,0 0.01807,0 0.01807,0 0.01807,0 0.01808,0 0.01807,0 0.01807,0 0.01808,0 0.01807,0 0.01806,0 0.01808,0 0.01807,0 0.01807,0 0.01806,0 0.01808,0 0.01807,0 0.01807,0 0.01808,0 0.01807,0 0.01807,0 0.01808,0 0.01807,0 0.01806,0 0.01807,0 0.01808,0 0.01807,0 0.01806,0 0.01808,0 0.01807,0 0.0076,0 0.01046,3.446e-4 c 0.0059,2.396e-4 0.012,5.991e-4 0.01806,9.886e-4 0.0061,3.894e-4 0.01216,8.388e-4 0.01808,0.00132 0.0063,5.093e-4 0.01234,0.00108 0.01807,0.00163 0.0066,6.441e-4 0.01273,0.00129 0.01807,0.0019 0.0055,6.291e-4 0.01017,0.00123 0.01369,0.00172 l 0.0044,7.939e-4 c 0.0061,0.00109 0.01209,0.00231 0.01806,0.00364 0.0061,0.00133 0.01209,0.00279 0.01807,0.00436 0.0061,0.0016 0.01209,0.0033 0.01808,0.00512 0.0061,0.00186 0.01209,0.00383 0.01807,0.00592 0.0061,0.00213 0.01209,0.00437 0.01806,0.00674 0.0061,0.00241 0.0121,0.00496 0.01807,0.00761 0.0061,0.00273 0.01212,0.00556 0.01808,0.00852 0.0061,0.00304 0.01212,0.0062 0.01807,0.0095 0.0061,0.00339 0.01212,0.00692 0.01806,0.010575 0.0061,0.00376 0.01215,0.00765 0.01808,0.011714 0.0061,0.00418 0.01215,0.00855 0.01807,0.013047 0.0061,0.00466 0.01216,0.00947 0.01807,0.01444 0.0062,0.00521 0.01219,0.01059 0.01808,0.016132 0.0062,0.00583 0.01221,0.011833 0.01807,0.018035 0.0062,0.00659 0.01224,0.013406 0.01807,0.020416 0.0063,0.00753 0.01228,0.015309 0.01807,0.023307 0.0063,0.00878 0.01237,0.01781 0.01808,0.027142 0.0064,0.01053 0.01248,0.02142 0.01806,0.03264 0.0067,0.013376 0.0127,0.027262 0.01807,0.041582 0.0073,0.019623 0.01341,0.040099 0.01808,0.061414 z m 2.240916,-4.7269046 0.0074,0 -1.5e-5,9.3622119 c 0,0.05593 -0.0026,0.111265 -0.0074,0.165954 -0.0042,0.04813 -0.01028,0.09573 -0.01808,0.14275 -0.0052,0.03159 -0.01126,0.0629 -0.01807,0.09393 -0.0055,0.02524 -0.01155,0.05031 -0.01808,0.07517 -0.0056,0.02145 -0.01168,0.04274 -0.01807,0.06387 -0.0058,0.01911 -0.01173,0.03814 -0.01808,0.057 -0.0058,0.01709 -0.01183,0.03405 -0.01807,0.05093 -0.0058,0.01571 -0.01186,0.03132 -0.01808,0.04684 -0.0058,0.01457 -0.01186,0.02904 -0.01806,0.04344 -0.0059,0.01363 -0.01191,0.02719 -0.01808,0.04065 -0.0059,0.01282 -0.01191,0.02559 -0.01807,0.03824 -0.0059,0.01213 -0.01192,0.02422 -0.01808,0.0362 -0.0059,0.01149 -0.01194,0.02293 -0.01806,0.03427 -0.0059,0.01092 -0.01197,0.02172 -0.01808,0.0325 -0.0059,0.01044 -0.01195,0.02081 -0.01807,0.03111 -0.0059,0.01004 -0.01197,0.02001 -0.01808,0.02993 -0.006,0.0096 -0.01195,0.01928 -0.01808,0.02882 -0.0059,0.0092 -0.012,0.01838 -0.01808,0.02749 -0.0059,0.0089 -0.01198,0.01766 -0.01807,0.02644 -0.006,0.0086 -0.01198,0.0172 -0.01808,0.0257 -0.006,0.0083 -0.01197,0.01657 -0.01806,0.02478 -0.0059,0.008 -0.01201,0.01589 -0.01808,0.02379 -0.006,0.0078 -0.01198,0.01553 -0.01807,0.0232 -0.006,0.0075 -0.01198,0.01501 -0.01808,0.02244 -0.006,0.0073 -0.01201,0.01447 -0.01807,0.02164 -0.006,0.0071 -0.01197,0.01423 -0.01808,0.02124 -0.006,0.0068 -0.01201,0.0136 -0.01807,0.02036 -0.006,0.0067 -0.01201,0.01332 -0.01808,0.01991 -0.006,0.0065 -0.01198,0.01299 -0.01807,0.0194 -0.006,0.0063 -0.01203,0.01248 -0.01808,0.01869 -0.006,0.0062 -0.01198,0.01237 -0.01808,0.01845 -0.006,0.0059 -0.01203,0.01177 -0.01807,0.01764 -0.006,0.0058 -0.012,0.01167 -0.01808,0.01742 -0.006,0.0056 -0.01201,0.01123 -0.01806,0.01681 -0.006,0.0055 -0.01203,0.01103 -0.01808,0.01646 -0.006,0.0054 -0.012,0.01073 -0.01807,0.01603 -0.006,0.0052 -0.01203,0.01043 -0.01808,0.01559 -0.006,0.0051 -0.012,0.01023 -0.01806,0.01528 -0.006,0.005 -0.01203,0.0099 -0.01808,0.01477 -0.006,0.0049 -0.012,0.0097 -0.01807,0.01455 -0.006,0.0047 -0.01204,0.0094 -0.01808,0.01402 -0.006,0.0046 -0.012,0.0093 -0.01807,0.01384 -0.006,0.0045 -0.01204,0.0089 -0.01808,0.01333 -0.006,0.0044 -0.01201,0.0089 -0.01808,0.0132 -0.006,0.0043 -0.01203,0.0084 -0.01807,0.01266 -0.006,0.0042 -0.01201,0.0084 -0.01808,0.01254 -0.006,0.0041 -0.01203,0.008 -0.01806,0.01206 -0.006,0.004 -0.01201,0.008 -0.01808,0.01191 -0.006,0.0039 -0.01203,0.0077 -0.01807,0.01149 -0.006,0.0038 -0.01203,0.0076 -0.01808,0.0113 -0.006,0.0037 -0.01201,0.0073 -0.01806,0.01095 l -0.01808,0.0107 c -0.006,0.0035 -0.01201,0.007 -0.01807,0.01046 -0.006,0.0034 -0.01204,0.0068 -0.01808,0.01011 -0.006,0.0033 -0.01201,0.0067 -0.01806,0.01 -0.006,0.0032 -0.01204,0.0064 -0.01808,0.0095 -0.006,0.0032 -0.01201,0.0064 -0.01808,0.0095 -0.006,0.0031 -0.01204,0.006 -0.01807,0.009 -0.006,0.003 -0.01201,0.006 -0.01808,0.009 -0.006,0.0029 -0.01204,0.0058 -0.01806,0.0086 l -0.01808,0.0084 -0.01807,0.0082 c -0.006,0.0027 -0.01204,0.0053 -0.01808,0.0079 -0.006,0.0026 -0.01201,0.0053 -0.01806,0.0078 -0.006,0.0025 -0.01204,0.0049 -0.01808,0.0074 -0.006,0.0025 -0.01201,0.005 -0.01807,0.0074 -0.006,0.0024 -0.01204,0.0046 -0.01808,0.007 -0.006,0.0023 -0.01201,0.0046 -0.01806,0.0069 l -0.01808,0.0067 c -0.006,0.0022 -0.01206,0.0043 -0.01808,0.0064 -0.006,0.0021 -0.012,0.0043 -0.01807,0.0064 -0.006,0.002 -0.01206,0.0039 -0.01808,0.0059 l -0.01807,0.0059 c -0.006,0.0019 -0.01204,0.0037 -0.01808,0.0056 l -0.01807,0.0054 c -0.006,0.0018 -0.01203,0.0036 -0.01808,0.0053 -0.006,0.0017 -0.01204,0.0033 -0.01806,0.0049 -0.006,0.0016 -0.01203,0.0033 -0.01808,0.0049 l -0.01807,0.0046 -0.01808,0.0044 -0.01806,0.0043 c -0.006,0.0014 -0.01204,0.0026 -0.01808,0.0039 -0.006,0.0013 -0.01203,0.0027 -0.01808,0.0039 l -0.01807,0.0036 -0.01808,0.0035 c -0.006,0.0011 -0.01203,0.0023 -0.01807,0.0034 -0.006,0.0011 -0.01206,0.002 -0.01808,0.003 l -0.01807,0.003 -0.01808,0.0027 -0.01807,0.0025 c -0.006,8.24e-4 -0.01203,0.0018 -0.01808,0.0025 -0.006,7.64e-4 -0.01206,0.0014 -0.01807,0.0021 -0.006,7.04e-4 -0.01204,0.0014 -0.01808,0.0021 -0.006,6.44e-4 -0.01203,0.0013 -0.01807,0.0019 -0.006,5.85e-4 -0.01206,0.0011 -0.01808,0.0016 -0.006,5.24e-4 -0.01204,0.0011 -0.01808,0.0016 -0.006,4.64e-4 -0.01204,8.39e-4 -0.01807,0.0013 l -0.01808,0.0011 c -0.006,3.6e-4 -0.01203,7.94e-4 -0.01807,0.0011 -0.006,3e-4 -0.01206,4.49e-4 -0.01808,6.89e-4 l -0.01807,6.89e-4 -0.01808,4.64e-4 c -0.006,1.35e-4 -0.01204,1.5e-4 -0.01807,2.4e-4 l -0.01808,2.25e-4 -0.0037,4.5e-5 -0.01434,0 -0.01808,0 -0.01807,0 -0.01808,0 -0.01808,0 -0.01806,0 -0.01808,0 -0.01807,0 -0.01808,0 -0.01807,0 -0.01808,0 -0.01807,0 -0.01808,0 -0.01807,0 -0.01808,0 -0.01808,0 -0.01807,0 -0.01808,0 -0.01806,0 -0.01808,0 -0.01807,0 -0.01808,0 -0.01806,0 -0.01808,0 -0.01807,0 -0.01808,0 -0.01807,0 -0.01808,0 -0.01808,0 -0.01807,0 -0.01808,0 -0.01806,0 -0.01808,0 -0.01807,0 -0.01808,0 -0.01806,0 -0.01808,0 -0.01807,0 -0.01808,0 -0.01806,0 -0.01808,0 -0.01808,0 -0.01807,0 -0.01808,0 -0.01806,0 -0.01808,0 -0.01807,0 -0.01808,0 -0.01806,0 -0.01808,0 -0.01807,0 -0.01808,0 -0.01806,0 -0.01808,0 -0.01808,0 -0.01807,0 -0.01808,0 -0.01807,0 -0.01808,0 -0.01807,0 -0.01808,0 -0.01806,0 -0.01808,0 -0.01807,0 -0.01808,0 -0.01806,0 -0.01808,0 -0.01808,0 -0.01807,0 -0.01808,0 -0.01807,0 -0.01808,0 -0.01807,0 -0.01808,0 -0.01807,0 -0.01808,0 -0.01807,0 -0.01808,0 -0.01807,0 -0.01808,0 -0.01808,0 -0.01807,0 -0.01808,0 -0.01807,0 -0.01808,0 -0.01807,0 -0.01808,0 -0.01807,0 -0.01808,0 -0.01807,0 -0.01808,0 -0.01807,0 -0.01808,0 -0.01808,0 -0.01806,0 -0.01808,0 -0.01807,0 -0.01808,0 -0.01807,0 -0.01808,0 -0.01807,0 -0.01808,0 -0.01807,0 -0.01808,0 -0.01807,0 -0.01808,0 -0.01808,0 -0.01806,0 -0.01808,0 -0.01807,0 -0.01808,0 -0.01806,0 -0.01808,0 -0.01807,0 -0.01808,0 -0.01807,0 -0.01808,0 -0.01807,0 -0.01808,0 -0.01808,0 -0.01806,0 -0.01808,0 -0.01807,0 -0.01808,0 -0.01806,0 -0.01808,0 -0.01807,0 -0.01808,0 -0.01806,0 -0.01808,0 -0.01807,0 -0.01808,0 -0.01808,0 -0.01806,0 -0.01808,0 -0.01807,0 -0.01808,0 -0.01806,0 -0.01808,0 -0.01807,0 -0.01808,0 -0.01806,0 -0.01808,0 -0.01807,0 -0.01808,0 -0.01808,0 -0.01807,0 -0.01808,0 -0.01807,0 -0.01808,0 -0.03899,0 0,-3.8173 0.03899,0 0.01808,0 0.01807,0 0.01808,0 0.01807,0 0.01808,0 0.01808,0 0.01807,0 0.01808,0 0.01806,0 0.01808,0 0.01807,0 0.01808,0 0.01806,0 0.01808,0 0.01807,0 0.01808,0 0.01806,0 0.01808,0 0.01808,0 0.01807,0 0.01808,0 0.01806,0 0.01808,0 0.01807,0 0.01808,0 0.01806,0 0.01808,0 0.01807,0 0.01808,0 0.01806,0 0.01808,0 0.01808,0 0.01807,0 0.01808,0 0.01807,0 0.01808,0 0.01807,0 0.01808,0 0.01806,0 0.01808,0 0.01807,0 0.01808,0 0.01806,0 0.01808,0 0.01808,0 0.01807,0 0.01808,0 0.01807,0 0.01808,0 0.01807,0 0.01808,0 0.01807,0 0.01808,0 0.01807,0 0.01808,0 0.01806,0 0.01808,0 0.01808,0 0.01807,0 0.01808,0 0.01807,0 0.01808,0 0.01807,0 0.01808,0 0.01807,0 0.01808,0 0.01807,0 0.01808,0 0.01807,0 0.01808,0 0.01808,0 0.01807,0 0.01808,0 0.01807,0 0.01808,0 0.01807,0 0.01808,0 0.01807,0 0.01808,0 0.01807,0 0.01808,0 0.01807,0 0.01808,0 0.01808,0 0.01806,0 0.01808,0 0.01807,0 0.01808,0 0.01806,0 0.01808,0 0.01807,0 0.01808,0 0.01807,0 0.01808,0 0.01807,0 0.01808,0 0.01808,0 0.01806,0 0.01808,0 0.01807,0 0.01808,0 0.01806,0 0.01808,0 0.01807,0 0.01808,0 0.01806,0 0.01808,0 0.01807,0 0.01808,0 0.01808,0 0.01806,0 0.01808,0 0.01807,0 0.01808,0 0.01806,0 0.01808,0 0.01807,0 0.01808,0 0.01806,0 0.01808,0 0.01807,0 0.01808,0 0.01808,0 0.01807,0 0.01808,0 0.01807,0 0.01808,0 0.01806,0 0.01808,0 0.01807,0 0.01808,0 0.01806,0 0.01808,0 0.01807,0 0.01808,0 0.01808,0 0.01807,0 0.01808,0 0.01807,0 0.01808,0 0.01807,0 0.01808,0 0.01807,0 0.01808,0 0.01806,0 0.01808,0 0.01808,0 0.01807,0 0.01808,0 0.01807,0 0.01808,0 0.01807,0 0.01808,0 0.01807,0 0.01808,0 0.01807,0 0.01808,0 0.01807,0 0.0096,0 0.0085,-7.5e-5 0.01808,-1.5e-4 0.01807,-3.74e-4 c 0.006,-1.5e-4 0.01207,-2.4e-4 0.01808,-4.5e-4 0.0061,-2.09e-4 0.01204,-4.94e-4 0.01807,-7.64e-4 l 0.01808,-8.38e-4 0.01807,-0.0011 0.01808,-0.0012 0.01807,-0.0014 0.01808,-0.0017 c 0.006,-5.69e-4 0.01207,-0.0011 0.01807,-0.0018 0.0061,-6.29e-4 0.01206,-0.0013 0.01808,-0.0021 l 0.01807,-0.0022 c 0.0061,-7.79e-4 0.01207,-0.0015 0.01808,-0.0024 0.0061,-8.39e-4 0.01206,-0.0018 0.01808,-0.0027 0.006,-9.14e-4 0.01207,-0.0018 0.01806,-0.0028 l 0.01808,-0.003 0.01807,-0.0033 c 0.006,-0.0011 0.01209,-0.0022 0.01808,-0.0034 0.0061,-0.0012 0.01206,-0.0025 0.01806,-0.0037 l 0.01808,-0.0039 c 0.006,-0.0013 0.01207,-0.0027 0.01807,-0.0041 0.0061,-0.0014 0.01207,-0.0029 0.01808,-0.0044 0.006,-0.0015 0.01207,-0.003 0.01807,-0.0046 0.006,-0.0016 0.01209,-0.0032 0.01808,-0.0049 0.0061,-0.0017 0.01206,-0.0034 0.01807,-0.0052 0.0061,-0.0018 0.01209,-0.0035 0.01808,-0.0054 l 0.01808,-0.0057 c 0.0061,-0.0019 0.01206,-0.0039 0.01806,-0.006 0.0061,-0.002 0.01209,-0.0041 0.01808,-0.0062 0.0061,-0.0021 0.01209,-0.0043 0.01807,-0.0065 0.0061,-0.0022 0.01207,-0.0046 0.01808,-0.0069 0.0061,-0.0023 0.01207,-0.0047 0.01806,-0.0071 0.0061,-0.0024 0.0121,-0.0049 0.01808,-0.0074 0.0061,-0.0025 0.01207,-0.0052 0.01807,-0.0078 0.0061,-0.0027 0.01209,-0.0054 0.01808,-0.0081 0.0061,-0.0028 0.01209,-0.0056 0.01806,-0.0084 0.0061,-0.0029 0.0121,-0.0058 0.01808,-0.0088 0.0061,-0.003 0.01207,-0.0061 0.01807,-0.0093 0.0061,-0.0032 0.01209,-0.0064 0.01808,-0.0097 0.0061,-0.0033 0.0121,-0.0067 0.01808,-0.01005 0.0061,-0.0034 0.0121,-0.0069 0.01806,-0.01049 0.0061,-0.0036 0.01212,-0.0072 0.01808,-0.01092 0.0061,-0.0038 0.01209,-0.0076 0.01807,-0.0115 0.0061,-0.004 0.0121,-0.008 0.01808,-0.01203 0.0061,-0.0041 0.0121,-0.0083 0.01806,-0.01255 0.0061,-0.0043 0.01212,-0.0087 0.01808,-0.01314 0.0061,-0.0045 0.01212,-0.0091 0.01807,-0.01375 0.0061,-0.0048 0.01213,-0.0096 0.01808,-0.01443 0.0061,-0.005 0.01212,-0.01004 0.01806,-0.01514 0.0061,-0.0052 0.01213,-0.01057 0.01808,-0.01595 0.0061,-0.0055 0.01213,-0.01114 0.01807,-0.01681 0.0061,-0.0058 0.01215,-0.01176 0.01808,-0.01775 0.0061,-0.0062 0.01215,-0.01246 0.01808,-0.01881 0.0061,-0.0066 0.01215,-0.01323 0.01807,-0.01995 0.0061,-0.007 0.01218,-0.01408 0.01808,-0.02126 0.0062,-0.0075 0.01218,-0.01504 0.01807,-0.02269 0.0062,-0.008 0.01222,-0.0161 0.01808,-0.02433 0.0062,-0.0087 0.01219,-0.01761 0.01806,-0.02657 0.0062,-0.0095 0.01225,-0.01911 0.01808,-0.02885 0.0063,-0.01047 0.01228,-0.02109 0.01807,-0.03185 0.0063,-0.0117 0.01236,-0.02353 0.01808,-0.03556 0.0064,-0.01344 0.0124,-0.0271 0.01806,-0.04094 0.0065,-0.01588 0.01255,-0.03197 0.01808,-0.04835 0.0068,-0.02019 0.01279,-0.04079 0.01807,-0.06174 0.0077,-0.03063 0.01377,-0.06207 0.01808,-0.09428 0.0052,-0.03908 0.008,-0.07924 0.008,-0.120507 0,-0.04019 -0.0027,-0.07922 -0.008,-0.117136 -0.0043,-0.03114 -0.01038,-0.0615 -0.01808,-0.09106 -0.0053,-0.02015 -0.01129,-0.0399 -0.01807,-0.05929 -0.0055,-0.01589 -0.01156,-0.03156 -0.01808,-0.04693 -0.0056,-0.01332 -0.01168,-0.02644 -0.01806,-0.03935 -0.0057,-0.01162 -0.01177,-0.02308 -0.01808,-0.03438 -0.0058,-0.0104 -0.0118,-0.02067 -0.01807,-0.03078 -0.0058,-0.0094 -0.01186,-0.01865 -0.01808,-0.02779 -0.0059,-0.0086 -0.01186,-0.017196 -0.01806,-0.025599 -0.0059,-0.00794 -0.01191,-0.015743 -0.01808,-0.023472 -0.0059,-0.0074 -0.01191,-0.014695 -0.01807,-0.021914 -0.0059,-0.00692 -0.01192,-0.013781 -0.01808,-0.020536 -0.0059,-0.0065 -0.01192,-0.012927 -0.01807,-0.019263 -0.0059,-0.00611 -0.01195,-0.012133 -0.01808,-0.018095 -0.0059,-0.00578 -0.01197,-0.011489 -0.01808,-0.017121 -0.0059,-0.00547 -0.01197,-0.01086 -0.01807,-0.016192 -0.0059,-0.0052 -0.01197,-0.010336 -0.01808,-0.015398 -0.0059,-0.00494 -0.01197,-0.00983 -0.01806,-0.01465 -0.006,-0.0047 -0.01198,-0.00936 -0.01808,-0.013946 -0.006,-0.00449 -0.01198,-0.00891 -0.01807,-0.013301 -0.006,-0.00428 -0.012,-0.00852 -0.01808,-0.012702 -0.006,-0.00409 -0.01198,-0.00815 -0.01806,-0.012148 -0.006,-0.00392 -0.012,-0.0078 -0.01808,-0.011624 -0.006,-0.00374 -0.01198,-0.00746 -0.01807,-0.011115 -0.006,-0.00358 -0.012,-0.00712 -0.01808,-0.010605 -0.006,-0.00343 -0.012,-0.00682 -0.01806,-0.010156 -0.006,-0.0033 -0.012,-0.00653 -0.01808,-0.00972 -0.006,-0.00316 -0.01201,-0.00628 -0.01808,-0.00936 -0.006,-0.00303 -0.012,-0.00604 -0.01807,-0.00899 -0.006,-0.00291 -0.012,-0.0058 -0.01808,-0.00863 -0.006,-0.00279 -0.01201,-0.0055 -0.01806,-0.00819 -0.006,-0.00267 -0.01201,-0.00529 -0.01808,-0.00788 -0.006,-0.00256 -0.01201,-0.00508 -0.01807,-0.00756 -0.006,-0.00246 -0.012,-0.00491 -0.01808,-0.00729 -0.006,-0.00235 -0.01201,-0.00467 -0.01806,-0.00695 -0.006,-0.00225 -0.01203,-0.00442 -0.01808,-0.00661 -0.006,-0.00216 -0.01201,-0.00425 -0.01807,-0.00635 -0.006,-0.00207 -0.01201,-0.00412 -0.01808,-0.00613 -0.006,-0.00198 -0.01201,-0.00391 -0.01806,-0.00581 -0.006,-0.00189 -0.01204,-0.00371 -0.01808,-0.00553 l -0.01808,-0.0053 c -0.006,-0.00172 -0.01201,-0.00345 -0.01807,-0.00509 -0.006,-0.00163 -0.01204,-0.00321 -0.01808,-0.00476 -0.006,-0.00156 -0.01201,-0.00306 -0.01807,-0.00455 -0.006,-0.00148 -0.01203,-0.00295 -0.01808,-0.00436 -0.006,-0.00141 -0.01203,-0.00277 -0.01807,-0.0041 -0.006,-0.00133 -0.01203,-0.00261 -0.01808,-0.00386 -0.006,-0.00126 -0.01201,-0.00252 -0.01806,-0.0037 l -0.01808,-0.00346 -0.01807,-0.00322 c -0.006,-0.00105 -0.01203,-0.0021 -0.01808,-0.00307 l -0.01806,-0.00285 c -0.006,-9.137e-4 -0.01204,-0.00177 -0.01808,-0.00261 l -0.01808,-0.00247 -0.01807,-0.00228 -0.01808,-0.00204 -0.01807,-0.0019 -0.01808,-0.00168 -0.01807,-0.00151 -0.01669,-0.00129 -1.5e-5,-0.02166 0.0167,-0.00259 0.01807,-0.00298 c 0.0061,-0.00103 0.01209,-0.00207 0.01808,-0.00316 l 0.01807,-0.00348 c 0.0061,-0.0012 0.01209,-0.00244 0.01808,-0.00371 l 0.01807,-0.00394 c 0.0061,-0.00136 0.0121,-0.00274 0.01808,-0.00418 0.0061,-0.00147 0.01207,-0.003 0.01808,-0.00452 0.0061,-0.00154 0.01207,-0.00316 0.01806,-0.00478 0.0061,-0.00165 0.01209,-0.00333 0.01808,-0.00505 0.0061,-0.00174 0.01209,-0.00349 0.01807,-0.0053 0.0061,-0.00183 0.0121,-0.00371 0.01808,-0.00563 0.0061,-0.00195 0.01207,-0.00395 0.01806,-0.00598 0.0061,-0.00205 0.01209,-0.00416 0.01808,-0.00629 0.0061,-0.00216 0.01209,-0.00434 0.01807,-0.00659 0.0061,-0.00228 0.0121,-0.00458 0.01808,-0.00694 0.0061,-0.00238 0.01209,-0.00482 0.01807,-0.00729 0.0061,-0.00252 0.0121,-0.00506 0.01808,-0.00767 0.0061,-0.00265 0.01209,-0.00535 0.01807,-0.00809 0.0061,-0.00277 0.0121,-0.00562 0.01808,-0.00849 0.0061,-0.00292 0.0121,-0.0059 0.01808,-0.00891 0.0061,-0.00307 0.0121,-0.00619 0.01806,-0.00935 0.0061,-0.00322 0.01212,-0.0065 0.01808,-0.00981 0.0061,-0.00339 0.0121,-0.00682 0.01807,-0.010291 0.0061,-0.00355 0.01212,-0.00716 0.01808,-0.010815 0.0061,-0.00373 0.0121,-0.0075 0.01806,-0.011339 0.0061,-0.00391 0.01212,-0.00791 0.01808,-0.011938 0.0061,-0.00412 0.01212,-0.0083 0.01807,-0.012537 0.0061,-0.00434 0.01213,-0.00873 0.01808,-0.013182 0.0061,-0.00457 0.01213,-0.00918 0.01806,-0.013871 0.0061,-0.00482 0.01215,-0.00968 0.01808,-0.01462 0.0061,-0.00509 0.01213,-0.010261 0.01807,-0.015473 0.0061,-0.00541 0.01215,-0.010875 0.01808,-0.016402 0.0061,-0.00571 0.01216,-0.011489 0.01808,-0.017331 0.0061,-0.00605 0.01216,-0.012163 0.01806,-0.018349 0.0062,-0.00647 0.01218,-0.013002 0.01808,-0.019623 0.0062,-0.00689 0.01218,-0.013886 0.01807,-0.020941 0.0062,-0.00738 0.01221,-0.014874 0.01808,-0.022439 0.0062,-0.00798 0.01221,-0.016073 0.01806,-0.024251 0.0062,-0.00867 0.01224,-0.017451 0.01808,-0.026318 0.0062,-0.00947 0.01227,-0.019023 0.01807,-0.028715 0.0063,-0.0105 0.01231,-0.021121 0.01808,-0.031861 0.0063,-0.011819 0.01236,-0.023772 0.01806,-0.03586 0.0064,-0.013601 0.01245,-0.027397 0.01808,-0.041327 0.0066,-0.016237 0.01258,-0.032699 0.01807,-0.049371 0.0069,-0.020956 0.01293,-0.042256 0.01808,-0.063826 0.0083,-0.034991 0.01437,-0.070716 0.01808,-0.1070555 0.0029,-0.02867 0.0045,-0.057729 0.0045,-0.087073 0,-0.030992 -0.0015,-0.061205 -0.0045,-0.090668 -0.0037,-0.037657 -0.0098,-0.074027 -0.01808,-0.1091376 -0.0052,-0.021929 -0.01121,-0.043365 -0.01808,-0.064275 -0.0055,-0.016732 -0.01152,-0.033134 -0.01807,-0.049221 -0.0056,-0.013856 -0.01167,-0.027472 -0.01808,-0.040833 -0.0057,-0.011923 -0.01176,-0.023652 -0.01806,-0.035186 -0.0058,-0.01056 -0.01182,-0.020956 -0.01808,-0.031201 -0.0058,-0.00951 -0.01183,-0.018889 -0.01807,-0.028116 -0.0058,-0.00864 -0.01188,-0.017151 -0.01808,-0.025539 -0.0059,-0.00794 -0.01188,-0.015773 -0.01806,-0.023487 -0.0059,-0.00737 -0.01189,-0.014665 -0.01808,-0.02184 -0.0059,-0.00682 -0.01192,-0.013511 -0.01807,-0.020147 -0.0059,-0.00638 -0.01194,-0.012672 -0.01808,-0.018889 -0.0059,-0.00599 -0.01194,-0.011893 -0.01806,-0.01772 -0.0059,-0.00565 -0.01195,-0.011234 -0.01808,-0.016717 -0.0059,-0.00532 -0.01197,-0.010575 -0.01808,-0.015758 -0.0059,-0.00503 -0.01195,-0.010006 -0.01807,-0.014904 -0.0059,-0.00476 -0.01197,-0.00948 -0.01808,-0.01411 -0.0059,-0.00452 -0.01197,-0.00897 -0.01806,-0.013361 -0.006,-0.0043 -0.01198,-0.00852 -0.01808,-0.012702 -0.006,-0.00407 -0.01197,-0.00809 -0.01807,-0.012058 -0.006,-0.00389 -0.012,-0.00773 -0.01808,-0.011504 -0.006,-0.0037 -0.012,-0.00734 -0.01806,-0.010935 -0.006,-0.00354 -0.012,-0.00701 -0.01808,-0.01044 -0.006,-0.00337 -0.01198,-0.0067 -0.01807,-0.00996 -0.006,-0.00322 -0.012,-0.00637 -0.01808,-0.0095 -0.006,-0.00307 -0.012,-0.0061 -0.01806,-0.00908 -0.006,-0.00294 -0.012,-0.00586 -0.01808,-0.00869 -0.006,-0.0028 -0.01201,-0.00557 -0.01808,-0.00827 -0.006,-0.00267 -0.012,-0.00524 -0.01807,-0.00783 -0.006,-0.00255 -0.01203,-0.00505 -0.01808,-0.00752 -0.006,-0.00243 -0.01201,-0.00482 -0.01807,-0.00718 -0.006,-0.00232 -0.01201,-0.00463 -0.01808,-0.00688 -0.006,-0.00222 -0.012,-0.00439 -0.01807,-0.00653 -0.006,-0.00211 -0.01201,-0.00416 -0.01808,-0.0062 -0.006,-0.00201 -0.01201,-0.00397 -0.01806,-0.0059 -0.006,-0.00192 -0.01201,-0.0038 -0.01808,-0.00565 -0.006,-0.00183 -0.012,-0.00365 -0.01807,-0.00541 -0.006,-0.00172 -0.01203,-0.00339 -0.01808,-0.00503 -0.006,-0.00165 -0.01201,-0.00324 -0.01806,-0.00481 l -0.01808,-0.0046 c -0.006,-0.00148 -0.01201,-0.00294 -0.01808,-0.00434 -0.006,-0.00139 -0.01201,-0.00274 -0.01807,-0.00406 l -0.01808,-0.00385 c -0.006,-0.00124 -0.012,-0.0025 -0.01807,-0.00367 -0.006,-0.00117 -0.01204,-0.00225 -0.01808,-0.00336 l -0.01807,-0.00318 c -0.006,-0.00102 -0.01201,-0.00205 -0.01808,-0.00301 l -0.01807,-0.00274 -0.01808,-0.00255 -0.01807,-0.0024 -0.01808,-0.00214 -0.01807,-0.00195 -0.01808,-0.00181 -0.01808,-0.00159 -0.01807,-0.00139 -0.01808,-0.00129 -0.01807,-0.00103 -0.0072,-4.045e-4 -0.01091,-6.74e-4 -0.01807,-0.00106 -0.01808,-0.001 -0.01807,-9.437e-4 -0.01808,-8.688e-4 -0.01807,-7.789e-4 -0.01808,-6.591e-4 -0.01807,-5.542e-4 -0.01808,-4.045e-4 -0.01808,-2.396e-4 -0.01,-3e-5 -0.0081,0 -0.01808,0 -0.01807,0 -0.01808,0 -0.01807,0 -0.01808,0 -0.01807,0 -0.01808,0 -0.01807,0 -0.01808,0 -0.01808,0 -0.01807,0 -0.01808,0 -0.01806,0 -0.01808,0 -0.01807,0 -0.01808,0 -0.01806,0 -0.01808,0 -0.01807,0 -0.01808,0 -0.01807,0 -0.01808,0 -0.01808,0 -0.01807,0 -0.01808,0 -0.01806,0 -0.01808,0 -0.01807,0 -0.01808,0 -0.01806,0 -0.01808,0 -0.01807,0 -0.01808,0 -0.01806,0 -0.01808,0 -0.01808,0 -0.01807,0 -0.01808,0 -0.01806,0 -0.01808,0 -0.01807,0 -0.01808,0 -0.01806,0 -0.01808,0 -0.01807,0 -0.01808,0 -0.01806,0 -0.01808,0 -0.01808,0 -0.01807,0 -0.01808,0 -0.01807,0 -0.01808,0 -0.01807,0 -0.01808,0 -0.01806,0 -0.01808,0 -0.01807,0 -0.01808,0 -0.01806,0 -0.01808,0 -0.01808,0 -0.01807,0 -0.01808,0 -0.01807,0 -0.01808,0 -0.01807,0 -0.01808,0 -0.01807,0 -0.01808,0 -0.01807,0 -0.01808,0 -0.01807,0 -0.01808,0 -0.01808,0 -0.01807,0 -0.01808,0 -0.01807,0 -0.01808,0 -0.01807,0 -0.01808,0 -0.01807,0 -0.01808,0 -0.01807,0 -0.01808,0 -0.01807,0 -0.01808,0 -0.01808,0 -0.01806,0 -0.01808,0 -0.01807,0 -0.01808,0 -0.01807,0 -0.01808,0 -0.01807,0 -0.01808,0 -0.01807,0 -0.01808,0 -0.01807,0 -0.01808,0 -0.01808,0 -0.01806,0 -0.01808,0 -0.01807,0 -0.01808,0 -0.01806,0 -0.01808,0 -0.01807,0 -0.01808,0 -0.01807,0 -0.01808,0 -0.01807,0 -0.01808,0 -0.01808,0 -0.01806,0 -0.01808,0 -0.01807,0 -0.01808,0 -0.01806,0 -0.01808,0 -0.01807,0 -0.01808,0 -0.01806,0 -0.01808,0 -0.01807,0 -0.01808,0 -0.01808,0 -0.01806,0 -0.01808,0 -0.01807,0 -0.01808,0 -0.01806,0 -0.01808,0 -0.01807,0 -0.01808,0 -0.01806,0 -0.01808,0 -0.01807,0 -0.01808,0 -0.01808,0 -0.01807,0 -0.01808,0 -0.01807,0 -0.01808,0 -0.03899,0 0,-1.9444498 c 0,-0.1308124 0.01347,-0.2584641 0.03899,-0.381712 0.0055,-0.026393 0.01152,-0.052562 0.01808,-0.07852 0.0056,-0.022214 0.01167,-0.044263 0.01807,-0.066148 0.0057,-0.019548 0.01174,-0.038961 0.01808,-0.058239 0.0058,-0.017615 0.01177,-0.035141 0.01807,-0.052517 0.0058,-0.016118 0.01182,-0.032145 0.01808,-0.048053 0.0059,-0.014859 0.01186,-0.029644 0.01808,-0.044308 0.0059,-0.013841 0.01188,-0.027621 0.01807,-0.041297 0.0059,-0.012987 0.01192,-0.025884 0.01808,-0.038706 0.0059,-0.012238 0.01192,-0.024386 0.01806,-0.036474 0.0059,-0.011624 0.01195,-0.023158 0.01808,-0.034647 0.0059,-0.01107 0.01194,-0.022064 0.01807,-0.032999 0.0059,-0.010605 0.01195,-0.021121 0.01808,-0.031591 0.0059,-0.010156 0.01194,-0.020267 0.01806,-0.030288 0.0059,-0.00972 0.01197,-0.019368 0.01808,-0.02897 0.0059,-0.0093 0.01198,-0.018514 0.01807,-0.027696 0.006,-0.00899 0.01197,-0.017945 0.01808,-0.026827 0.006,-0.0087 0.01194,-0.017406 0.01806,-0.026004 0.0059,-0.00833 0.01201,-0.016552 0.01808,-0.024775 0.0059,-0.00809 0.012,-0.016118 0.01808,-0.024101 0.006,-0.00786 0.01195,-0.015758 0.01807,-0.023517 0.0059,-0.00755 0.01203,-0.014979 0.01808,-0.022439 0.006,-0.00735 0.01198,-0.014649 0.01806,-0.021899 0.006,-0.00716 0.01198,-0.01432 0.01808,-0.02139 0.0059,-0.00689 0.01201,-0.013661 0.01807,-0.020461 0.006,-0.00674 0.01198,-0.013496 0.01808,-0.020147 0.006,-0.00652 0.01201,-0.012972 0.01806,-0.019413 0.006,-0.00635 0.01201,-0.012657 0.01808,-0.018934 0.006,-0.00619 0.01198,-0.012373 0.01807,-0.018484 0.006,-0.00601 0.01203,-0.011923 0.01808,-0.01784 0.006,-0.00589 0.01197,-0.011833 0.01806,-0.01763 0.006,-0.00568 0.01204,-0.011219 0.01808,-0.016821 0.006,-0.00557 0.012,-0.011159 0.01808,-0.016657 0.006,-0.00541 0.01203,-0.01071 0.01807,-0.016028 0.006,-0.00529 0.01201,-0.010575 0.01808,-0.015788 0.006,-0.00514 0.01201,-0.010201 0.01807,-0.015264 0.006,-0.00502 0.01201,-0.010021 0.01808,-0.014964 0.006,-0.0049 0.01201,-0.00974 0.01807,-0.014545 l 0.01808,-0.014215 0.01806,-0.013841 c 0.006,-0.00454 0.01203,-0.00905 0.01808,-0.013511 0.006,-0.00442 0.01201,-0.00882 0.01807,-0.013182 l 0.01808,-0.012837 c 0.006,-0.00421 0.01201,-0.00839 0.01806,-0.012523 l 0.01808,-0.012238 0.01808,-0.011908 c 0.006,-0.00391 0.01201,-0.0078 0.01807,-0.011639 l 0.01808,-0.011294 c 0.006,-0.00373 0.01201,-0.00746 0.01807,-0.011114 0.006,-0.00362 0.01204,-0.00715 0.01808,-0.010695 0.006,-0.00355 0.012,-0.00713 0.01807,-0.010605 0.006,-0.00343 0.01206,-0.00674 0.01808,-0.010111 0.006,-0.00337 0.012,-0.0068 0.01807,-0.010096 0.006,-0.00325 0.01206,-0.0064 0.01808,-0.00959 0.006,-0.00319 0.01201,-0.0064 0.01807,-0.00953 0.006,-0.0031 0.01204,-0.00611 0.01808,-0.00914 0.006,-0.00301 0.01203,-0.00604 0.01806,-0.00899 l 0.01808,-0.00873 c 0.006,-0.00286 0.01204,-0.00565 0.01808,-0.00845 0.006,-0.00279 0.01201,-0.00562 0.01807,-0.00834 0.006,-0.0027 0.01206,-0.00527 0.01808,-0.00791 0.006,-0.00264 0.01201,-0.00532 0.01807,-0.00789 0.006,-0.00255 0.01206,-0.00497 0.01808,-0.00746 0.006,-0.00247 0.01201,-0.00497 0.01807,-0.00738 l 0.01808,-0.00711 0.01807,-0.00688 c 0.006,-0.00228 0.01203,-0.00458 0.01808,-0.00679 0.006,-0.00219 0.01204,-0.00424 0.01807,-0.00637 0.006,-0.00213 0.01203,-0.0043 0.01808,-0.00637 0.006,-0.00205 0.01204,-0.00398 0.01807,-0.00598 l 0.01808,-0.00586 c 0.006,-0.00192 0.01203,-0.00385 0.01808,-0.00571 0.006,-0.00184 0.01204,-0.00358 0.01807,-0.00536 0.006,-0.0018 0.01203,-0.00365 0.01808,-0.00538 0.006,-0.00171 0.01204,-0.0033 0.01807,-0.00494 0.006,-0.00165 0.01203,-0.00331 0.01808,-0.0049 l 0.01807,-0.00467 c 0.006,-0.00151 0.01204,-0.00295 0.01808,-0.0044 0.006,-0.00145 0.01201,-0.00301 0.01807,-0.0044 0.006,-0.00138 0.01206,-0.00264 0.01808,-0.00397 l 0.01807,-0.00394 0.01808,-0.00373 c 0.006,-0.0012 0.01204,-0.00232 0.01807,-0.00346 0.006,-0.00115 0.01203,-0.00238 0.01808,-0.00348 0.006,-0.00109 0.01206,-0.00202 0.01808,-0.00304 l 0.01806,-0.003 c 0.006,-9.586e-4 0.01204,-0.00195 0.01808,-0.00285 0.006,-8.987e-4 0.01204,-0.00169 0.01807,-0.00253 0.006,-8.389e-4 0.01203,-0.00175 0.01808,-0.00253 0.006,-7.789e-4 0.01204,-0.00147 0.01806,-0.00219 l 0.01808,-0.00207 c 0.006,-6.591e-4 0.01203,-0.00139 0.01807,-0.00199 0.006,-5.992e-4 0.01206,-0.00106 0.01808,-0.0016 l 0.01807,-0.0016 0.01808,-0.00136 c 0.006,-4.344e-4 0.01204,-7.789e-4 0.01807,-0.00115 0.006,-3.595e-4 0.01203,-8.239e-4 0.01808,-0.00114 0.006,-3.146e-4 0.01206,-4.943e-4 0.01808,-7.49e-4 l 0.01806,-6.74e-4 c 0.006,-1.948e-4 0.01204,-4.494e-4 0.01808,-5.842e-4 0.006,-1.348e-4 0.01204,-1.498e-4 0.01807,-2.397e-4 0.006,-8.98e-5 0.01204,-1.947e-4 0.01808,-2.247e-4 l 0.0045,-5.99e-5 0.01353,0 0.01808,0 0.01807,0 0.01808,0 0.01806,0 0.01808,0 0.01807,0 0.01808,0 0.01808,0 0.01806,0 0.01808,0 0.01807,0 0.01808,0 0.01806,0 0.01808,0 0.01807,0 0.01808,0 0.01806,0 0.01808,0 0.01807,0 0.01808,0 0.01808,0 0.01807,0 0.01808,0 0.01807,0 0.01808,0 0.01806,0 0.01808,0 0.01807,0 0.01808,0 0.01806,0 0.01808,0 0.01807,0 0.01808,0 0.01808,0 0.01807,0 0.01808,0 0.01807,0 0.01808,0 0.01807,0 0.01808,0 0.01807,0 0.01808,0 0.01806,0 0.01808,0 0.01808,0 0.01807,0 0.01808,0 0.01807,0 0.01808,0 0.01807,0 0.01808,0 0.01807,0 0.01808,0 0.01807,0 0.01808,0 0.01807,0 0.01808,0 0.01808,0 0.01807,0 0.01808,0 0.01807,0 0.01808,0 0.01807,0 0.01808,0 0.01807,0 0.01808,0 0.01807,0 0.01808,0 0.01807,0 0.01808,0 0.01808,0 0.01806,0 0.01808,0 0.01807,0 0.01808,0 0.01806,0 0.01808,0 0.01807,0 0.01808,0 0.01807,0 0.01808,0 0.01807,0 0.01808,0 0.01808,0 0.01806,0 0.01808,0 0.01807,0 0.01808,0 0.01806,0 0.01808,0 0.01807,0 0.01808,0 0.01806,0 0.01808,0 0.01807,0 0.01808,0 0.01808,0 0.01806,0 0.01808,0 0.01807,0 0.01808,0 0.01806,0 0.01808,0 0.01807,0 0.01808,0 0.01806,0 0.01808,0 0.01807,0 0.01808,0 0.01808,0 0.01807,0 0.01808,0 0.01807,0 0.01808,0 0.01806,0 0.01808,0 0.01807,0 0.01808,0 0.01806,0 0.01808,0 0.01807,0 0.01808,0 0.01808,0 0.01807,0 0.01808,0 0.01807,0 0.01808,0 0.01807,0 0.01808,0 0.01807,0 0.01808,0 0.01806,0 0.01808,0 0.01807,0 0.01808,0 0.01808,0 0.01808,0 0.01807,0 0.01808,0 0.01806,0 0.01808,0 0.01807,0 0.01808,0 0.01806,0 0.01808,0 0.01807,0 0.01808,0 0.01807,0 0.01808,0 0.01807,0 0.01808,0 0,-1.5e-5 z"
   class="fil1" /><path
   inkscape:connector-curvature="0"
   style="fill:url(#linearGradient3794)"
   id="path29"
   d="m 7.7892394,10.493746 c -0.012927,-0.0061 -0.025839,-0.01233 -0.038751,-0.01857 l 0,-4.6243276 c 0,-0.1304379 0.013361,-0.2577601 0.038751,-0.3806785 0.00545,-0.026393 0.011504,-0.052547 0.01805,-0.07852 0.0056,-0.022244 0.011639,-0.044308 0.018035,-0.066223 0.00571,-0.019533 0.011729,-0.038916 0.018035,-0.058179 0.00578,-0.01763 0.011759,-0.035186 0.01805,-0.052592 0.00583,-0.016103 0.011788,-0.032115 0.018035,-0.048008 0.00583,-0.014859 0.011848,-0.029674 0.01805,-0.044353 0.00586,-0.013841 0.011863,-0.027591 0.018035,-0.041252 0.00587,-0.012987 0.011893,-0.025869 0.018035,-0.038691 0.00587,-0.012253 0.011923,-0.024416 0.01805,-0.036519 0.00589,-0.011624 0.011908,-0.023158 0.018035,-0.034632 0.0059,-0.01107 0.011923,-0.022064 0.018035,-0.032999 0.00592,-0.01059 0.011923,-0.021121 0.01805,-0.031576 0.00593,-0.010156 0.011908,-0.020282 0.018035,-0.030318 0.00593,-0.00971 0.011953,-0.019338 0.01805,-0.028925 0.0059,-0.00929 0.011968,-0.018514 0.018035,-0.027696 0.00595,-0.00899 0.011938,-0.017945 0.018035,-0.026828 0.00599,-0.00872 0.011923,-0.017421 0.01805,-0.026034 0.00592,-0.00831 0.011983,-0.016522 0.018035,-0.024745 0.00596,-0.00809 0.011968,-0.016118 0.01805,-0.024101 0.00598,-0.00785 0.011938,-0.015758 0.018035,-0.023517 0.00593,-0.00753 0.011998,-0.014949 0.018035,-0.022394 0.00596,-0.00735 0.011968,-0.014679 0.01805,-0.021944 0.00598,-0.00715 0.011953,-0.014275 0.018035,-0.02133 0.00595,-0.00691 0.011998,-0.013691 0.01805,-0.020506 0.00598,-0.00676 0.011953,-0.013496 0.018035,-0.020147 0.00595,-0.00652 0.011998,-0.012942 0.018035,-0.019368 0.00598,-0.00637 0.011983,-0.012672 0.01805,-0.018949 0.00598,-0.00619 0.011968,-0.012373 0.018035,-0.018484 0.00596,-0.00601 0.012013,-0.011923 0.01805,-0.01784 0.00601,-0.00589 0.011953,-0.011819 0.018035,-0.017615 0.00595,-0.00568 0.012013,-0.011219 0.018035,-0.016821 0.00601,-0.00559 0.011968,-0.011189 0.01805,-0.016687 0.00596,-0.00539 0.012013,-0.01068 0.018035,-0.015998 0.00601,-0.00529 0.011983,-0.01059 0.01805,-0.015803 0.00598,-0.00514 0.011998,-0.010186 0.018035,-0.015249 0.00598,-0.00502 0.011983,-0.010036 0.018035,-0.014979 0.00598,-0.00488 0.012013,-0.00972 0.01805,-0.014545 0.00599,-0.00478 0.011983,-0.00951 0.018035,-0.014215 0.00598,-0.00466 0.012013,-0.00926 0.01805,-0.013841 0.00599,-0.00454 0.011998,-0.00906 0.018035,-0.013526 l 0.018035,-0.013152 c 0.00599,-0.00433 0.011998,-0.00863 0.01805,-0.012882 0.00598,-0.00421 0.011998,-0.00837 0.018035,-0.012507 0.00599,-0.00412 0.011998,-0.00821 0.018035,-0.012253 0.00599,-0.004 0.012013,-0.00794 0.01805,-0.011878 0.00599,-0.00391 0.011983,-0.00785 0.018035,-0.011699 0.00598,-0.0038 0.012013,-0.00752 0.01805,-0.011264 0.00601,-0.00373 0.011983,-0.0075 0.018035,-0.011159 0.00596,-0.00361 0.012013,-0.00712 0.018035,-0.010665 0.00602,-0.00355 0.011983,-0.00716 0.01805,-0.01065 0.00596,-0.00343 0.012028,-0.00671 0.018035,-0.010081 0.00602,-0.00337 0.011998,-0.00679 0.01805,-0.010096 0.00598,-0.00327 0.012013,-0.00641 0.018035,-0.0096 0.00601,-0.00319 0.011998,-0.0064 0.018035,-0.00953 0.00599,-0.0031 0.012013,-0.00614 0.01805,-0.00918 l 0.018035,-0.00896 c 0.00601,-0.00295 0.012013,-0.0059 0.01805,-0.00878 0.00599,-0.00286 0.012013,-0.00563 0.018035,-0.00843 0.00602,-0.0028 0.011983,-0.00566 0.018035,-0.00839 0.00598,-0.00271 0.012028,-0.00526 0.01805,-0.00789 0.00601,-0.00264 0.011998,-0.00532 0.018035,-0.00789 0.00599,-0.00255 0.012028,-0.005 0.01805,-0.00749 l 0.018035,-0.00737 0.018035,-0.00716 0.01805,-0.00686 c 0.00602,-0.00228 0.011983,-0.00463 0.018035,-0.00685 0.00598,-0.00219 0.012043,-0.00422 0.01805,-0.00635 0.00601,-0.00213 0.011998,-0.00428 0.018035,-0.00635 l 0.018035,-0.00604 0.01805,-0.00586 c 0.00601,-0.00192 0.011998,-0.00388 0.018035,-0.00574 0.00598,-0.00184 0.012028,-0.00359 0.018035,-0.00538 0.00602,-0.0018 0.012013,-0.00362 0.01805,-0.00536 0.00599,-0.00172 0.012013,-0.00333 0.018035,-0.00499 l 0.01805,-0.0049 c 0.00601,-0.00159 0.011998,-0.00321 0.018035,-0.00473 0.00599,-0.00153 0.012028,-0.00292 0.018035,-0.00439 0.00601,-0.00147 0.012013,-0.003 0.01805,-0.0044 0.00599,-0.00139 0.012028,-0.0027 0.018035,-0.00403 l 0.01805,-0.00392 c 0.00601,-0.00129 0.011998,-0.00259 0.018035,-0.0038 0.00599,-0.0012 0.012028,-0.00231 0.018035,-0.00346 0.00602,-0.00115 0.012013,-0.00235 0.01805,-0.00345 0.00601,-0.00109 0.012013,-0.00208 0.018035,-0.00312 l 0.01805,-0.003 c 0.00601,-9.587e-4 0.011998,-0.00199 0.018035,-0.00291 0.00599,-9.138e-4 0.012028,-0.00168 0.018035,-0.00253 0.00601,-8.388e-4 0.012013,-0.00174 0.01805,-0.00253 l 0.018035,-0.00226 0.01805,-0.00205 c 0.00602,-6.74e-4 0.011998,-0.00145 0.018035,-0.00207 0.00599,-6.141e-4 0.012028,-0.00106 0.018035,-0.00162 l 0.01805,-0.00159 c 0.00601,-5.093e-4 0.012013,-0.001 0.018035,-0.00144 0.00601,-4.344e-4 0.012028,-7.789e-4 0.01805,-0.00115 0.00602,-3.745e-4 0.012013,-8.088e-4 0.018035,-0.00114 0.00599,-3.295e-4 0.012013,-5.542e-4 0.018035,-8.238e-4 l 0.01805,-6.891e-4 c 0.00601,-2.097e-4 0.011998,-5.242e-4 0.018035,-6.74e-4 0.00599,-1.498e-4 0.012028,-1.348e-4 0.018035,-2.247e-4 0.00601,-8.99e-5 0.012028,-1.947e-4 0.01805,-2.247e-4 l 0.00801,-1.049e-4 0.010021,0 0.01805,0 0.018035,0 0.018035,0 0.01805,0 0.018035,0 0.01805,0 0.018035,0 0.018035,0 0.01805,0 0.018035,0 0.01805,0 0.018035,0 0.018035,0 0.01805,0 0.018035,0 0.01805,0 0.018035,0 0.018035,0 0.01805,0 0.018035,0 0.01805,0 0.01804,0 0.01803,0 0.01805,0 0.01804,0 0.01805,0 0.01804,0 0.01803,0 0.01805,0 0.01804,0 0.01805,0 0.01804,0 0.01803,0 0.01805,0 0.01804,0 0.01803,0 0.01805,0 0.01803,0 0.01805,0 0.01804,0 0.01803,0 0.01805,0 0.01803,0 0.01805,0 0.01804,0 0.01803,0 0.01805,0 0.01803,0 0.01805,0 0.01804,0 0.01803,0 0.01805,0 0.01803,0 0.01805,0 0.01803,0 0.01803,0 0.01805,0 0.01803,0 0.01804,0 0.01805,0 0.01803,0 0.01805,0 0.01803,0 0.01805,0 0.01803,0 0.01803,0 0.01805,0 0.01803,0 0.01804,0 0.01805,0 0.01803,0 0.01805,0 0.01803,0 0.01804,0 0.01805,0 0.01803,0 0.01805,0 0.01803,0 0.01804,0 0.01805,0 0.01803,0 0.01805,0 0.01803,0 0.01804,0 0.01805,0 0.01803,0 0.01804,0 0.01805,0 0.01804,0 0.01805,0 0.01803,0 0.01805,0 0.01803,0 0.01804,0 0.01805,0 0.01803,0 0.01805,0 0.01803,0 0.01804,0 0.01805,0 0.01803,0 0.01803,0 0.01805,0 0.01803,0 0.01805,0 0.01803,0 0.01805,0 0.01804,0 0.01803,0 0.01805,0 0.01803,0 0.01803,0 0.01805,0 0.01803,0 0.01805,0 0.01803,0 0.01803,0 0.01805,0 0.01803,0 0.01803,0 0.01805,0 0.01803,0 0.01805,0 0.01803,0 0.01805,0 0.01803,0 0.01803,0 0.01805,0 0.01803,0 0.01803,0 0.01805,0 0.01803,0 0.01805,0 0.01803,0 0.01803,0 0.01805,0 0.01803,0 0.01805,0 0.01803,0 0.01803,0 0.01805,0 0.01803,0 0.01805,0 0.01803,0 0.01803,0 0.01805,0 0.01804,0 0.01803,0 0.01805,0 0.01803,0 0.01805,0 0.01531,0 0,9.3622119 c 0,0.08144 -0.0052,0.16167 -0.01531,0.24037 -0.0049,0.0379 -0.01097,0.07539 -0.01805,0.112537 -0.0054,0.02825 -0.01138,0.05629 -0.01803,0.08408 -0.0056,0.02341 -0.01159,0.04666 -0.01805,0.06973 -0.0057,0.02024 -0.01171,0.04032 -0.01803,0.06026 -0.0057,0.01806 -0.01177,0.03599 -0.01804,0.05382 -0.0058,0.01649 -0.0118,0.03289 -0.01805,0.04918 -0.0058,0.0152 -0.01183,0.0303 -0.01803,0.04531 -0.0058,0.01413 -0.01186,0.02819 -0.01803,0.04214 -0.0059,0.01324 -0.01189,0.02639 -0.01805,0.03948 -0.0059,0.01248 -0.01189,0.02487 -0.01803,0.03719 -0.0059,0.01183 -0.01191,0.02359 -0.01805,0.03528 -0.0059,0.01125 -0.01191,0.02244 -0.01803,0.03355 -0.0059,0.01076 -0.01189,0.02147 -0.01803,0.03209 -0.0059,0.01024 -0.01194,0.02043 -0.01805,0.03056 -0.0059,0.0098 -0.01195,0.01949 -0.01803,0.02916 -0.0059,0.0095 -0.01195,0.01884 -0.01805,0.02818 -0.006,0.0091 -0.01192,0.01823 -0.01803,0.02723 -0.0059,0.0087 -0.01197,0.01741 -0.01803,0.02603 -0.0059,0.0084 -0.01197,0.01679 -0.01805,0.02513 -0.006,0.0082 -0.01195,0.01636 -0.01803,0.02445 -0.0059,0.0079 -0.01197,0.01576 -0.01805,0.02356 -0.0059,0.0076 -0.01198,0.01517 -0.01803,0.02271 -0.006,0.0074 -0.01195,0.01489 -0.01803,0.02223 -0.0059,0.0072 -0.012,0.01426 -0.01805,0.02135 -0.006,0.007 -0.01197,0.0139 -0.01803,0.02079 -0.006,0.0068 -0.01195,0.01363 -0.01803,0.02034 -0.0059,0.0066 -0.01201,0.013 -0.01805,0.01949 -0.006,0.0064 -0.01195,0.01287 -0.01803,0.0192 -0.006,0.0062 -0.012,0.01234 -0.01805,0.01849 -0.006,0.0061 -0.01197,0.01209 -0.01803,0.01808 -0.006,0.0059 -0.01198,0.01179 -0.01805,0.01763 -0.006,0.0057 -0.012,0.0114 -0.01803,0.01706 -0.006,0.0056 -0.01197,0.01125 -0.01803,0.01679 -0.006,0.0054 -0.01201,0.01077 -0.01805,0.01613 -0.006,0.0053 -0.01195,0.01074 -0.01803,0.016 -0.0059,0.0052 -0.01203,0.01017 -0.01803,0.01526 -0.006,0.0051 -0.01198,0.0102 -0.01805,0.0152 -0.006,0.0049 -0.01201,0.0097 -0.01803,0.01455 -0.006,0.0048 -0.01198,0.0097 -0.01805,0.01444 -0.006,0.0047 -0.01201,0.0092 -0.01803,0.01383 -0.006,0.0046 -0.01197,0.0092 -0.01803,0.01371 -0.006,0.0044 -0.01203,0.0088 -0.01805,0.01317 -0.006,0.0044 -0.01197,0.0088 -0.01803,0.01306 -0.006,0.0042 -0.01201,0.0084 -0.01804,0.01251 -0.006,0.0042 -0.01198,0.0084 -0.01805,0.01246 -0.006,0.004 -0.01201,0.0079 -0.01803,0.01188 -0.006,0.004 -0.01198,0.008 -0.01805,0.01188 -0.006,0.0038 -0.01203,0.0075 -0.01803,0.01125 -0.006,0.0038 -0.01198,0.0076 -0.01805,0.01126 -0.006,0.0036 -0.01203,0.0072 -0.01803,0.01074 -0.006,0.0036 -0.01198,0.0072 -0.01803,0.01066 -0.006,0.0035 -0.01201,0.0068 -0.01805,0.01025 -0.006,0.0034 -0.012,0.0068 -0.01804,0.01008 -0.006,0.0033 -0.012,0.0066 -0.01803,0.0098 l -0.01805,0.0095 c -0.006,0.0031 -0.012,0.0063 -0.01803,0.0093 -0.006,0.003 -0.01201,0.006 -0.01805,0.009 -0.006,0.003 -0.01198,0.006 -0.01804,0.0089 -0.006,0.0029 -0.01203,0.0056 -0.01803,0.0084 -0.006,0.0028 -0.012,0.0057 -0.01805,0.0084 -0.006,0.0027 -0.01203,0.0053 -0.01803,0.008 l -0.01805,0.0079 -0.01804,0.0077 c -0.006,0.0025 -0.01203,0.0049 -0.01805,0.0074 -0.006,0.0024 -0.012,0.0049 -0.01804,0.0073 -0.006,0.0024 -0.01201,0.0046 -0.01803,0.0068 -0.006,0.0023 -0.012,0.0046 -0.01805,0.0069 -0.006,0.0022 -0.01201,0.0043 -0.01804,0.0065 l -0.01803,0.0064 -0.01805,0.0062 c -0.006,0.002 -0.01203,0.0039 -0.01803,0.0059 -0.006,0.0019 -0.012,0.004 -0.01805,0.0059 -0.006,0.0019 -0.01203,0.0036 -0.01804,0.0054 l -0.01803,0.0054 -0.01805,0.0051 c -0.006,0.0017 -0.01201,0.0033 -0.01803,0.0049 -0.006,0.0016 -0.01201,0.0033 -0.01805,0.0049 -0.006,0.0015 -0.01204,0.0029 -0.01804,0.0044 -0.006,0.0015 -0.01201,0.003 -0.01803,0.0044 l -0.01805,0.0041 -0.01803,0.0039 c -0.006,0.0013 -0.012,0.0027 -0.01805,0.0039 -0.006,0.0012 -0.01203,0.0023 -0.01804,0.0034 -0.006,0.0012 -0.01201,0.0024 -0.01803,0.0035 l -0.01805,0.0033 c -0.006,0.001 -0.01201,0.002 -0.01803,0.003 -0.006,9.88e-4 -0.01201,0.0021 -0.01803,0.003 -0.006,9.29e-4 -0.01203,0.0017 -0.01805,0.0026 l -0.01803,0.0025 c -0.006,8.09e-4 -0.01201,0.0016 -0.01805,0.0024 -0.006,7.49e-4 -0.01203,0.0014 -0.01803,0.0021 -0.006,6.89e-4 -0.01201,0.0014 -0.01805,0.0021 -0.006,6.29e-4 -0.01201,0.0012 -0.01804,0.0017 l -0.01803,0.0016 c -0.006,5.1e-4 -0.01201,0.0011 -0.01805,0.0016 -0.006,4.5e-4 -0.01203,7.49e-4 -0.01803,0.0011 l -0.01803,0.0011 -0.01805,9.59e-4 c -0.006,2.84e-4 -0.01203,4.64e-4 -0.01803,6.89e-4 -0.006,2.24e-4 -0.01203,5.09e-4 -0.01805,6.89e-4 -0.006,1.65e-4 -0.01203,2.24e-4 -0.01803,3.44e-4 l -0.01804,2.25e-4 c -0.0056,4.5e-5 -0.01113,2.1e-4 -0.01673,2.1e-4 l -0.0013,0 -0.01803,0 -0.01805,0 -0.01803,0 -0.01804,0 -0.01805,0 -0.01803,0 -0.01805,0 -0.01803,0 -0.01804,0 -0.01805,0 -0.01803,0 -0.01805,0 -0.01803,0 -0.01804,0 -0.01805,0 -0.01803,0 -0.01804,0 -0.01805,0 -0.01804,0 -0.01805,0 -0.01803,0 -0.01804,0 -0.01805,0 -0.01804,0 -0.01805,0 -0.01803,0 -0.01804,0 -0.01805,0 -0.018035,0 -0.01805,0 -0.018035,0 -0.018035,0 -0.01805,0 -0.018035,0 -0.01805,0 -0.018035,0 -0.018035,0 -0.01805,0 -0.018035,0 -0.01805,0 -0.018035,0 -0.018035,0 -0.01805,0 -0.018035,0 -0.01805,0 -0.018035,0 -0.018035,0 -0.01805,0 -0.018035,0 -0.01805,0 -0.018035,0 -0.018035,0 -0.01805,0 -0.018035,0 -0.018035,0 -0.01805,0 -0.018035,0 -0.01805,0 -0.018035,0 -0.018035,0 -0.01805,0 -0.018035,0 -0.01805,0 -0.018035,0 -0.018035,0 -0.01805,0 -0.018035,0 -0.01805,0 -0.018035,0 -0.018035,0 -0.01805,0 -0.018035,0 -0.01805,0 -0.018035,0 -0.018035,0 -0.01805,0 -0.018035,0 -0.01805,0 -0.018035,0 -0.018035,0 -0.01805,0 -0.018035,0 -0.018035,0 -0.01805,0 -0.018035,0 -0.01805,0 -0.018035,0 -0.018035,0 -0.01805,0 -0.018035,0 -0.01805,0 -0.018035,0 -0.018035,0 -0.01805,0 -0.018035,0 -0.01805,0 -0.018035,0 -0.018035,0 -0.01805,0 -0.018035,0 -0.01805,0 -0.018035,0 -0.018035,0 -0.01805,0 -0.018035,0 -0.01805,0 -0.018035,0 -0.018035,0 -0.01805,0 -0.018035,0 -0.018035,0 -0.01805,0 -0.018035,0 -0.01805,0 -0.018035,0 -0.018035,0 -0.01805,0 -0.018035,0 -0.01805,0 -0.018035,0 -0.018035,0 -0.01805,0 -0.018035,0 -0.01805,0 -0.018035,0 -0.018035,0 -0.01805,0 -0.018035,0 -0.01805,0 -0.018035,0 -0.018035,0 -0.01805,0 -0.018035,0 -0.01805,0 -0.018035,0 -0.018035,0 -0.01805,0 -0.018035,0 -0.01805,0 -0.018035,0 -0.018035,0 -0.01805,0 -0.018035,0 -0.018035,0 -0.01805,0 -0.018035,0 -0.01805,0 -0.018035,0 -0.018035,0 -0.01805,0 -0.038751,0 0,-3.946075 c 0,0 0.013331,0.0037 0.038751,0.01008 l 0.01805,0.0045 0.018035,0.0044 0.018035,0.0043 0.01805,0.0043 0.018035,0.0042 0.01805,0.0041 0.018035,0.0041 0.018035,0.004 0.01805,0.004 0.018035,0.0039 0.018035,0.0038 0.01805,0.0038 0.018035,0.0038 0.01805,0.0037 0.018035,0.0037 0.018035,0.0036 0.01805,0.0036 0.018035,0.0035 0.01805,0.0035 0.018035,0.0034 0.018035,0.0034 0.01805,0.0033 0.018035,0.0033 0.01805,0.0033 0.018035,0.0032 0.018035,0.0032 0.01805,0.0031 0.018035,0.0031 0.01805,0.003 0.018035,0.003 0.018035,0.003 0.01805,0.0029 0.018035,0.0029 0.01805,0.0028 0.018035,0.0028 0.018035,0.0028 0.01805,0.0027 0.018035,0.0027 0.01805,0.0026 0.018035,0.0026 0.018035,0.0026 0.01805,0.0025 0.018035,0.0025 0.018035,0.0025 0.01805,0.0024 0.018035,0.0024 0.01805,0.0023 0.018035,0.0023 0.018035,0.0023 0.01805,0.0022 0.018035,0.0022 0.01805,0.0021 0.018035,0.0021 0.018035,0.002 0.01805,0.002 0.018035,0.002 0.01805,0.0019 0.018035,0.0019 0.018035,0.0018 0.01805,0.0018 0.018035,0.0018 0.01805,0.0018 0.018035,0.0017 0.018035,0.0016 0.01805,0.0017 0.018035,0.0016 0.01805,0.0016 0.018035,0.0015 0.018035,0.0015 0.01805,0.0015 0.018035,0.0014 0.018035,0.0014 0.01805,0.0013 0.018035,0.0013 0.01805,0.0013 0.018035,0.0012 0.018035,0.0012 0.01805,0.0011 0.018035,0.0011 0.01805,0.0011 0.018035,9.73e-4 0.018035,9.59e-4 0.01805,9.29e-4 0.018035,8.53e-4 0.01805,8.54e-4 0.018035,7.79e-4 0.018035,7.49e-4 0.01805,7.49e-4 0.018035,6.29e-4 0.01805,6.44e-4 0.018035,5.99e-4 0.018035,5.25e-4 0.01805,5.39e-4 0.018035,4.49e-4 0.01805,4.05e-4 0.018035,4.19e-4 0.018035,3e-4 0.01805,2.99e-4 0.018035,2.7e-4 0.018035,1.8e-4 0.01805,1.94e-4 0.018035,1.35e-4 0.01805,6e-5 0.018035,4.5e-5 0.00697,3e-5 0.01107,-6e-5 0.01805,-1.2e-4 0.018035,-1.05e-4 0.01805,-1.04e-4 0.018035,-1.05e-4 0.018035,-3.3e-4 0.01805,-3.29e-4 0.018035,-3.3e-4 0.01805,-3.29e-4 0.018035,-4.5e-4 0.018035,-5.69e-4 0.01805,-5.54e-4 0.018035,-5.55e-4 0.01805,-5.99e-4 0.018035,-7.94e-4 0.018035,-7.93e-4 0.01805,-8.09e-4 0.018035,-7.94e-4 0.01805,-0.001 0.01804,-0.001 0.01803,-0.001 0.01805,-0.001 0.01804,-0.0012 0.01805,-0.0013 0.01804,-0.0013 0.01803,-0.0013 0.01805,-0.0014 0.01804,-0.0016 0.01805,-0.0016 0.01804,-0.0016 0.01803,-0.0017 0.01805,-0.0018 0.01804,-0.0018 0.01803,-0.0018 0.01805,-0.002 0.01803,-0.0021 0.01805,-0.0021 0.01804,-0.0021 0.01803,-0.0024 0.01805,-0.0024 0.01803,-0.0024 0.01805,-0.0025 c 0.0061,-8.68e-4 0.012,-0.0018 0.01804,-0.0027 l 0.01803,-0.0027 0.01805,-0.0027 0.01803,-0.0029 c 0.0061,-9.74e-4 0.01201,-0.002 0.01805,-0.003 l 0.01804,-0.003 c 0.006,-0.001 0.0121,-0.002 0.01803,-0.003 0.0061,-0.0011 0.012,-0.0022 0.01805,-0.0033 l 0.01803,-0.0034 0.01805,-0.0034 0.01803,-0.0035 c 0.0061,-0.0012 0.01201,-0.0025 0.01803,-0.0037 l 0.01805,-0.0037 0.01803,-0.0038 c 0.0061,-0.0013 0.012,-0.0027 0.01804,-0.0041 l 0.01805,-0.0041 c 0.006,-0.0014 0.0121,-0.0027 0.01803,-0.0041 0.0061,-0.0014 0.01201,-0.003 0.01805,-0.0044 l 0.01803,-0.0044 c 0.006,-0.0015 0.0121,-0.0029 0.01805,-0.0044 0.0061,-0.0015 0.01203,-0.0032 0.01803,-0.0047 l 0.01803,-0.0048 c 0.006,-0.0016 0.0121,-0.0032 0.01805,-0.0048 0.0061,-0.0017 0.01203,-0.0034 0.01803,-0.0051 l 0.01804,-0.0052 c 0.006,-0.0018 0.0121,-0.0035 0.01805,-0.0052 l 0.01803,-0.0055 0.01805,-0.0057 c 0.006,-0.0019 0.0121,-0.0037 0.01803,-0.0057 l 0.01804,-0.006 0.01805,-0.0061 c 0.006,-0.0021 0.01212,-0.004 0.01803,-0.0061 0.0061,-0.0021 0.01201,-0.0044 0.01805,-0.0065 l 0.01803,-0.0066 c 0.006,-0.0022 0.01209,-0.0044 0.01804,-0.0067 0.0061,-0.0023 0.01203,-0.0047 0.01805,-0.0071 0.006,-0.0024 0.01209,-0.0047 0.01803,-0.0071 l 0.01805,-0.0073 0.01803,-0.0076 c 0.006,-0.0025 0.01212,-0.005 0.01804,-0.0076 0.0061,-0.0027 0.01201,-0.0054 0.01805,-0.0081 l 0.01803,-0.0081 0.01804,-0.0084 c 0.0061,-0.0029 0.01206,-0.0058 0.01805,-0.0087 0.006,-0.0029 0.01212,-0.0058 0.01804,-0.0087 0.0061,-0.0031 0.01203,-0.0062 0.01805,-0.0093 0.006,-0.0031 0.0121,-0.0061 0.01803,-0.0093 0.0061,-0.0032 0.01204,-0.0065 0.01805,-0.0098 0.0061,-0.0033 0.01207,-0.0066 0.01803,-0.0099 0.0061,-0.0034 0.01207,-0.0068 0.01804,-0.01023 0.0061,-0.0035 0.01207,-0.007 0.01805,-0.01059 0.006,-0.0036 0.01209,-0.0072 0.01803,-0.01079 0.0061,-0.0037 0.01206,-0.0075 0.01805,-0.01128 0.006,-0.0038 0.0121,-0.0076 0.01803,-0.01143 0.0061,-0.004 0.01204,-0.008 0.01804,-0.01203 0.006,-0.0041 0.01212,-0.0081 0.01805,-0.01218 0.0061,-0.0042 0.01204,-0.0085 0.01803,-0.01281 0.006,-0.0043 0.01212,-0.0086 0.01803,-0.01302 0.0061,-0.0045 0.01207,-0.0091 0.01805,-0.01365 0.0061,-0.0046 0.0121,-0.0093 0.01803,-0.01398 0.0061,-0.0048 0.01209,-0.0097 0.01805,-0.01456 0.0061,-0.005 0.01209,-0.01004 0.01803,-0.01508 0.0061,-0.0052 0.01213,-0.01029 0.01805,-0.0155 0.0061,-0.0054 0.01206,-0.01089 0.01804,-0.01636 0.0061,-0.0055 0.01213,-0.01107 0.01803,-0.01669 0.0061,-0.0058 0.0121,-0.01171 0.01805,-0.01762 0.0061,-0.0061 0.0121,-0.01216 0.01803,-0.01829 0.0061,-0.0063 0.01215,-0.01251 0.01803,-0.01884 0.0061,-0.0066 0.01209,-0.01335 0.01805,-0.02007 0.0061,-0.0069 0.01212,-0.01387 0.01803,-0.02087 0.0061,-0.0072 0.01216,-0.01442 0.01805,-0.02173 0.0061,-0.0076 0.01215,-0.01519 0.01803,-0.02287 0.0062,-0.008 0.01212,-0.01616 0.01803,-0.02431 0.0062,-0.0085 0.01215,-0.01702 0.01805,-0.02562 0.0062,-0.009 0.01216,-0.01799 0.01803,-0.02708 0.0062,-0.0095 0.01218,-0.01913 0.01803,-0.02881 0.0062,-0.01021 0.01221,-0.02048 0.01805,-0.03084 0.0062,-0.01098 0.01221,-0.02204 0.01803,-0.03318 0.0062,-0.01192 0.01224,-0.02392 0.01805,-0.03601 0.0063,-0.013 0.01225,-0.02612 0.01803,-0.03932 0.0063,-0.01435 0.01231,-0.02879 0.01805,-0.04336 0.0063,-0.01607 0.01236,-0.03228 0.01803,-0.04862 0.0064,-0.01854 0.01242,-0.03728 0.01803,-0.05617 0.0066,-0.02208 0.01257,-0.04438 0.01805,-0.0669 0.0068,-0.02794 0.01284,-0.05619 0.01803,-0.08475 0.0077,-0.04253 0.01369,-0.08573 0.01803,-0.129495 0.0061,-0.06104 0.009,-0.123173 0.009,-0.1862794 l 0,-2.1725214 -0.009,0 -0.01803,0 -0.01803,0 -0.01805,0 -0.01803,0 -0.01803,0 -0.01805,0 -0.01803,0 -0.01805,0 -0.01803,0 -0.01805,0 -0.01803,0 -0.01803,0 -0.01805,0 -0.01803,0 -0.01803,0 -0.01805,0 -0.01803,0 -0.01805,0 -0.01803,0 -0.01803,0 -0.01805,0 -0.01803,0 -0.01804,0 -0.01805,0 -0.01803,0 -0.01805,0 -0.01803,0 -0.01805,0 -0.01803,0 -0.01803,0 -0.01805,0 -0.01804,0 -0.01803,0 -0.01805,0 -0.01803,0 -0.01805,0 -0.01804,0 -0.01803,0 -0.01805,0 -0.01803,0 -0.01805,0 -0.01804,0 -0.01805,0 -0.01804,0 -0.01803,0 -0.01805,0 -0.01804,0 -0.01803,0 -0.01805,0 -0.01803,0 -0.01805,0 -0.01804,0 -0.01803,0 -0.01805,0 -0.01803,0 -0.01805,0 -0.01804,0 -0.01803,0 -0.01805,0 -0.01803,0 -0.01805,0 -0.01804,0 -0.01803,0 -0.01805,0 -0.01803,0 -0.01803,0 -0.01805,0 -0.01803,0 -0.01805,0 -0.01803,0 -0.01805,0 -0.01804,0 -0.01803,0 -0.01805,0 -0.01803,0 -0.01803,0 -0.01805,0 -0.01803,0 -0.01805,0 -0.01803,0 -0.01804,0 -0.01805,0 -0.01803,0 -0.01805,0 -0.01803,0 -0.01804,0 -0.01805,0 -0.01803,0 -0.01368,0 0,2.1725214 c 0,0.034002 -0.0015,0.067465 -0.0044,0.1002854 -0.0037,0.04181 -0.0097,0.08256 -0.01803,0.122199 -0.0051,0.02448 -0.01116,0.0485 -0.01804,0.07208 -0.0055,0.01878 -0.01147,0.03727 -0.01805,0.05544 -0.0056,0.01547 -0.01164,0.03069 -0.01803,0.0457 -0.0057,0.01339 -0.01171,0.02657 -0.01805,0.03958 -0.0058,0.01183 -0.01174,0.02353 -0.01803,0.03502 -0.0058,0.01058 -0.01183,0.02094 -0.01804,0.03122 -0.0058,0.0097 -0.01183,0.0192 -0.01805,0.02859 -0.0058,0.0088 -0.01186,0.0175 -0.01803,0.02606 -0.0059,0.0082 -0.01185,0.01627 -0.01804,0.02422 -0.0059,0.0076 -0.01191,0.01495 -0.01805,0.02229 -0.0059,0.007 -0.01189,0.01395 -0.01804,0.02079 -0.0059,0.0066 -0.01191,0.01311 -0.01805,0.0195 -0.0059,0.0062 -0.01191,0.01228 -0.01803,0.01829 -0.0059,0.0058 -0.01192,0.01155 -0.01804,0.01718 -0.0059,0.0055 -0.01195,0.0108 -0.01805,0.0161 -0.0059,0.0051 -0.01194,0.01022 -0.01804,0.0152 -0.0059,0.0049 -0.01197,0.0096 -0.01805,0.01435 -0.0059,0.0046 -0.01195,0.0091 -0.01803,0.01357 -0.0059,0.0043 -0.01195,0.0086 -0.01804,0.01284 -0.0059,0.0041 -0.011953,0.0082 -0.01805,0.01216 -0.00595,0.0039 -0.011953,0.0077 -0.018035,0.0115 -0.00595,0.0037 -0.011968,0.0073 -0.01805,0.01087 -0.00595,0.0035 -0.011968,0.0069 -0.018035,0.01029 -0.00595,0.0033 -0.011968,0.0065 -0.018035,0.0097 -0.00596,0.0031 -0.011968,0.0062 -0.01805,0.0092 -0.00596,0.003 -0.011968,0.0059 -0.018035,0.0088 -0.00598,0.0028 -0.011968,0.0056 -0.01805,0.0083 -0.00598,0.0027 -0.011968,0.0053 -0.018035,0.0079 -0.00595,0.0025 -0.011983,0.0049 -0.018035,0.0074 -0.00596,0.0024 -0.011998,0.0047 -0.01805,0.007 -0.00598,0.0022 -0.011968,0.0044 -0.018035,0.0066 -0.00598,0.0021 -0.011983,0.0042 -0.01805,0.0063 -0.00596,0.002 -0.011983,0.0039 -0.018035,0.0058 -0.00596,0.0019 -0.011998,0.0037 -0.018035,0.0055 -0.00598,0.0018 -0.011998,0.0035 -0.01805,0.0052 -0.00599,0.0016 -0.011983,0.0033 -0.018035,0.0049 -0.00598,0.0015 -0.011998,0.003 -0.01805,0.0045 -0.00596,0.0014 -0.011983,0.0028 -0.018035,0.0042 -0.00598,0.0013 -0.011983,0.0027 -0.018035,0.0039 -0.00599,0.0012 -0.011983,0.0025 -0.01805,0.0036 -0.00598,0.0011 -0.011998,0.0022 -0.018035,0.0033 -0.00599,0.001 -0.011998,0.0021 -0.01805,0.0031 l -0.018035,0.0028 c -0.00598,8.68e-4 -0.011998,0.0017 -0.018035,0.0025 -0.00599,7.94e-4 -0.011983,0.0016 -0.01805,0.0023 l -0.018035,0.002 c -0.00598,6.14e-4 -0.011998,0.0012 -0.018035,0.0017 -0.00601,5.39e-4 -0.011998,0.0011 -0.01805,0.0016 -0.00598,4.64e-4 -0.011998,8.68e-4 -0.018035,0.0013 -0.00599,3.89e-4 -0.012013,7.19e-4 -0.01805,0.001 -0.00601,3.15e-4 -0.011983,6.3e-4 -0.018035,8.69e-4 -0.00598,2.4e-4 -0.012013,3.75e-4 -0.018035,5.54e-4 l -0.01805,4.2e-4 c -0.00598,1.05e-4 -0.011998,1.35e-4 -0.018035,1.8e-4 l -0.00679,6e-5 -0.011264,-4.5e-5 -0.018035,-1.2e-4 -0.018035,-2.55e-4 -0.01805,-3.74e-4 -0.018035,-4.8e-4 -0.01805,-5.84e-4 -0.018035,-7.34e-4 -0.018035,-8.39e-4 -0.01805,-9.13e-4 -0.018035,-0.0011 -0.01805,-0.0012 -0.018035,-0.0013 -0.018035,-0.0014 -0.01805,-0.0015 -0.018035,-0.0016 -0.01805,-0.0017 -0.018035,-0.0019 -0.018035,-0.0019 -0.01805,-0.0021 -0.018035,-0.0022 -0.018035,-0.0023 -0.01805,-0.0024 -0.018035,-0.0025 -0.01805,-0.0026 -0.018035,-0.0027 -0.018035,-0.0028 -0.01805,-0.0029 -0.018035,-0.003 -0.01805,-0.0031 -0.018035,-0.0033 -0.018035,-0.0033 -0.01805,-0.0034 -0.018035,-0.0036 -0.01805,-0.0037 -0.018035,-0.0038 -0.018035,-0.0038 -0.01805,-0.004 -0.018035,-0.0041 -0.01805,-0.0041 -0.018035,-0.0043 -0.018035,-0.0044 -0.01805,-0.0045 -0.018035,-0.0045 -0.01805,-0.0047 -0.018035,-0.0048 -0.018035,-0.0048 -0.01805,-0.005 -0.018035,-0.005 -0.018035,-0.0052 -0.01805,-0.0052 -0.018035,-0.0054 -0.01805,-0.0054 -0.018035,-0.0055 -0.018035,-0.0056 -0.01805,-0.0057 -0.018035,-0.0058 -0.01805,-0.0059 -0.018035,-0.006 -0.018035,-0.0061 -0.01805,-0.0062 -0.018035,-0.0062 -0.01805,-0.0064 -0.018035,-0.0064 -0.018035,-0.0065 -0.01805,-0.0067 -0.018035,-0.0067 -0.01805,-0.0068 -0.018035,-0.0069 -0.018035,-0.007 -0.01805,-0.0071 -0.018035,-0.0071 -0.01805,-0.0072 -0.018035,-0.0073 -0.018035,-0.0074 -0.01805,-0.0075 -0.018035,-0.0076 -0.01805,-0.0077 -0.018035,-0.0077 -0.018035,-0.0078 -0.01805,-0.0079 -0.018035,-0.008 -0.018035,-0.008 -0.01805,-0.0081 -0.018035,-0.0082 -0.01805,-0.0083 -0.018035,-0.0084 -0.018035,-0.0085 -0.01805,-0.0085 0,-1.5e-5 z"
   class="fil2" /><path
   inkscape:connector-curvature="0"
   style="fill:url(#linearGradient3791)"
   id="path31"
   d="m 12.969471,8.2700413 c -0.01315,0.010635 -0.02609,0.02136 -0.03874,0.03222 l 0,-2.4514019 c 0,-0.130363 0.01338,-0.2576103 0.03874,-0.3804838 0.0055,-0.026378 0.01149,-0.052517 0.01803,-0.078475 0.0056,-0.022274 0.01165,-0.044368 0.01805,-0.066312 0.0057,-0.019548 0.01173,-0.038961 0.01805,-0.058239 0.0058,-0.017615 0.01176,-0.035141 0.01803,-0.052517 0.0058,-0.016102 0.0118,-0.03213 0.01805,-0.048023 0.0058,-0.014859 0.01183,-0.029644 0.01803,-0.044323 0.0059,-0.013841 0.01186,-0.027591 0.01804,-0.041267 0.0059,-0.012987 0.01191,-0.025884 0.01805,-0.038706 0.0059,-0.012253 0.01191,-0.024386 0.01803,-0.036489 0.0059,-0.011624 0.01192,-0.023158 0.01805,-0.034647 0.0059,-0.011069 0.01192,-0.022064 0.01804,-0.032999 0.0059,-0.01059 0.01192,-0.021135 0.01805,-0.031591 0.0059,-0.010156 0.01191,-0.020267 0.01803,-0.030303 0.0059,-0.00969 0.01194,-0.019323 0.01803,-0.028895 0.0059,-0.00932 0.01197,-0.018529 0.01805,-0.027726 0.0059,-0.009 0.01194,-0.017945 0.01804,-0.026828 0.006,-0.00872 0.01194,-0.017436 0.01805,-0.026034 0.0059,-0.00833 0.01198,-0.016522 0.01804,-0.024731 0.006,-0.00809 0.01197,-0.016132 0.01805,-0.024116 0.006,-0.00786 0.01194,-0.015743 0.01803,-0.023502 0.0059,-0.00753 0.01201,-0.014964 0.01805,-0.022409 0.006,-0.00735 0.01197,-0.014679 0.01803,-0.021929 0.006,-0.00716 0.01197,-0.01429 0.01805,-0.021345 0.0059,-0.00689 0.012,-0.013691 0.01803,-0.020491 0.006,-0.00674 0.01197,-0.013511 0.01805,-0.020177 0.0059,-0.00652 0.01198,-0.012957 0.01802,-0.019383 0.006,-0.00635 0.01198,-0.012657 0.01803,-0.018934 0.006,-0.00619 0.01198,-0.012373 0.01805,-0.018484 0.006,-0.00599 0.012,-0.011908 0.01803,-0.017825 0.006,-0.00589 0.01197,-0.011818 0.01805,-0.01763 0.0059,-0.00568 0.01201,-0.011219 0.01804,-0.016821 0.006,-0.00559 0.01197,-0.011189 0.01805,-0.016687 0.006,-0.00539 0.01201,-0.010695 0.01804,-0.016013 0.006,-0.0053 0.01198,-0.01059 0.01805,-0.015803 0.006,-0.00514 0.012,-0.010186 0.01803,-0.015249 0.006,-0.00502 0.012,-0.010036 0.01805,-0.014994 0.006,-0.00488 0.012,-0.00972 0.01803,-0.01453 0.006,-0.00478 0.012,-0.00953 0.01805,-0.01423 0.006,-0.00464 0.012,-0.00924 0.01803,-0.013826 0.006,-0.00454 0.012,-0.00906 0.01803,-0.013526 0.006,-0.00443 0.01201,-0.00881 0.01805,-0.013167 0.006,-0.00431 0.012,-0.00863 0.01803,-0.012882 0.006,-0.00421 0.01201,-0.00836 0.01805,-0.012507 0.006,-0.00412 0.012,-0.00822 0.01803,-0.012268 0.006,-0.004 0.01201,-0.00794 0.01805,-0.011878 0.006,-0.00392 0.01198,-0.00785 0.01803,-0.011699 0.006,-0.0038 0.01201,-0.00752 0.01805,-0.011264 0.006,-0.00373 0.01198,-0.0075 0.01803,-0.01116 0.006,-0.00362 0.01203,-0.00713 0.01805,-0.01068 0.006,-0.00355 0.01198,-0.00718 0.01803,-0.01065 0.006,-0.00343 0.01204,-0.00673 0.01805,-0.010096 0.006,-0.00337 0.01198,-0.00677 0.01804,-0.010066 0.006,-0.00327 0.01201,-0.00641 0.01803,-0.00962 0.006,-0.00319 0.012,-0.0064 0.01805,-0.00953 l 0.01803,-0.00918 0.01805,-0.00897 c 0.006,-0.00294 0.012,-0.0059 0.01804,-0.00878 0.006,-0.00286 0.01203,-0.00563 0.01805,-0.00843 0.006,-0.00279 0.01198,-0.00566 0.01804,-0.00839 0.006,-0.00271 0.01203,-0.00526 0.01805,-0.00789 0.006,-0.00264 0.012,-0.00532 0.01803,-0.00789 0.006,-0.00255 0.01201,-0.00502 0.01804,-0.0075 l 0.01805,-0.00737 c 0.006,-0.00241 0.012,-0.00482 0.01804,-0.00717 0.006,-0.00234 0.01203,-0.00458 0.01805,-0.00686 0.006,-0.00228 0.01198,-0.00463 0.01803,-0.00685 0.006,-0.00219 0.01204,-0.00422 0.01805,-0.00635 0.006,-0.00213 0.012,-0.00428 0.01803,-0.00635 0.006,-0.00207 0.01203,-0.00404 0.01805,-0.00604 l 0.01804,-0.00586 c 0.006,-0.00192 0.01201,-0.00388 0.01805,-0.00575 0.006,-0.00184 0.01203,-0.00358 0.01803,-0.00536 0.006,-0.0018 0.01201,-0.00364 0.01805,-0.00538 0.006,-0.00172 0.01201,-0.00333 0.01803,-0.00499 l 0.01804,-0.0049 c 0.006,-0.00159 0.01201,-0.00321 0.01805,-0.00473 0.006,-0.00151 0.01203,-0.00294 0.01803,-0.0044 0.006,-0.00147 0.01201,-0.003 0.01805,-0.0044 0.006,-0.00139 0.01203,-0.0027 0.01803,-0.00403 l 0.01805,-0.00392 c 0.006,-0.00127 0.012,-0.00259 0.01803,-0.0038 0.006,-0.00121 0.01203,-0.00231 0.01805,-0.00346 0.006,-0.00115 0.012,-0.00237 0.01803,-0.00346 l 0.01805,-0.00312 0.01803,-0.00298 c 0.006,-9.737e-4 0.01201,-0.00201 0.01805,-0.00292 0.006,-9.137e-4 0.01203,-0.00168 0.01804,-0.00253 0.006,-8.389e-4 0.01201,-0.00172 0.01803,-0.00252 l 0.01805,-0.00226 0.01803,-0.00207 c 0.006,-6.74e-4 0.01201,-0.00145 0.01805,-0.00207 0.006,-6.141e-4 0.01203,-0.00106 0.01804,-0.00162 l 0.01805,-0.00159 c 0.006,-5.093e-4 0.01201,-0.001 0.01804,-0.00144 0.006,-4.344e-4 0.01203,-7.789e-4 0.01803,-0.00115 0.006,-3.745e-4 0.01201,-8.089e-4 0.01805,-0.00114 0.006,-3.295e-4 0.01203,-5.542e-4 0.01805,-8.239e-4 l 0.01803,-6.89e-4 c 0.006,-2.097e-4 0.01201,-5.243e-4 0.01805,-6.741e-4 0.006,-1.497e-4 0.01203,-1.348e-4 0.01803,-2.246e-4 0.006,-8.99e-5 0.01203,-1.948e-4 0.01805,-2.247e-4 l 0.008,-1.049e-4 0.01008,0 0.01805,0 0.01803,0 0.01803,0 0.01805,0 0.01803,0 0.01805,0 0.01803,0 0.01805,0 0.01803,0 0.01805,0 0.01804,0 0.01803,0 0.01805,0 0.01803,0 0.01805,0 0.01804,0 0.01805,0 0.01804,0 0.01803,0 0.01805,0 0.01803,0 0.01805,0 0.01804,0 0.01805,0 0.01805,0 0.01803,0 0.01805,0 0.01803,0 0.01804,0 0.01805,0 0.01803,0 0.01805,0 0.01803,0 0.01805,0 0.01803,0 0.01803,0 0.01805,0 0.01803,0 0.01805,0 0.01803,0 0.01805,0 0.01803,0 0.01805,0 0.01803,0 0.01803,0 0.01805,0 0.01803,0 0.01805,0 0.01803,0 0.01805,0 0.01803,0 0.01805,0 0.01804,0 0.01803,0 0.01805,0 0.01805,0 0.01803,0 0.01805,0 0.01803,0 0.01805,0 0.01803,0 0.01803,0 0.01805,0 0.01803,0 0.01805,0 0.01803,0 0.01805,0 0.01804,0 0.01805,0 0.01804,0 0.01803,0 0.01805,0 0.01804,0 0.01805,0 0.01804,0 0.01805,0 0.01804,0 0.01805,0 0.01804,0 0.01804,0 0.01805,0 0.01804,0 0.01805,0 0.01804,0 0.01805,0 0.01804,0 0.01805,0 0.01803,0 0.01805,0 0.01803,0 0.01805,0 0.01803,0 0.01805,0 0.01804,0 0.01805,0 0.01804,0 0.01803,0 0.01805,0 0.01804,0 0.01805,0 0.01804,0 0.01805,0 0.01804,0 0.01805,0 0.01804,0 0.01804,0 0.01805,0 0.01804,0 0.01805,0 0.01804,0 0.01805,0 0.01804,0 0.01805,0 0.01803,0 0.01804,0 0.01805,0 0.01804,0 0.01805,0 0.01805,0 0.01804,0 0.01805,0 0.01804,0 0.01803,0 0.01805,0 0.01804,0 0.01805,0 0.01804,0 0.01805,0 0.01804,0 0.01805,0 0.01804,0 0.01804,0 0.01805,0 0.01804,0 0.01805,0 0.01804,0 0.01805,0 0.01804,0 0.01804,0 0.01805,0 0.01804,0 0.01805,0 0.01804,0 0.01805,0 0.01803,0 0.01805,0 0.01803,0 0.01804,0 0.01805,0 0.01805,0 0.01804,0 0.01529,0 0,9.3622119 c 0,0.08141 -0.0052,0.16158 -0.01529,0.24025 -0.0049,0.03788 -0.01095,0.07536 -0.01804,0.112493 -0.0054,0.02826 -0.0114,0.05632 -0.01805,0.08412 -0.0056,0.02341 -0.01158,0.04668 -0.01805,0.06974 -0.0057,0.02024 -0.0117,0.04032 -0.01804,0.06028 -0.0057,0.01806 -0.01177,0.03598 -0.01803,0.05381 -0.0058,0.01649 -0.01182,0.03289 -0.01805,0.04918 -0.0058,0.01519 -0.01182,0.03027 -0.01803,0.04528 -0.0059,0.01414 -0.01186,0.0282 -0.01805,0.04217 -0.0059,0.01324 -0.01188,0.02638 -0.01804,0.03946 -0.0059,0.01249 -0.01189,0.02491 -0.01805,0.03724 -0.0059,0.01182 -0.01191,0.02358 -0.01804,0.03526 -0.0059,0.01126 -0.01191,0.02245 -0.01805,0.03358 -0.0059,0.01076 -0.01189,0.02147 -0.01804,0.03209 -0.0059,0.01023 -0.01194,0.0204 -0.01804,0.03051 -0.0059,0.0098 -0.01195,0.0195 -0.01805,0.02919 -0.0059,0.0094 -0.01194,0.01883 -0.01804,0.02815 -0.006,0.0091 -0.01192,0.01826 -0.01805,0.02726 -0.0059,0.0087 -0.01197,0.01739 -0.01804,0.02602 -0.0059,0.0084 -0.01197,0.01679 -0.01805,0.02514 -0.006,0.0082 -0.01195,0.01637 -0.01804,0.02446 -0.0059,0.0079 -0.01197,0.01571 -0.01804,0.02352 -0.0059,0.0076 -0.012,0.0152 -0.01805,0.02274 -0.006,0.0074 -0.01194,0.01487 -0.01804,0.02223 -0.0059,0.0072 -0.012,0.01426 -0.01805,0.02136 -0.006,0.007 -0.01197,0.01389 -0.01804,0.02078 -0.006,0.0068 -0.01197,0.01362 -0.01805,0.02034 -0.0059,0.0066 -0.01201,0.013 -0.01804,0.01949 -0.006,0.0064 -0.01197,0.01288 -0.01805,0.01923 -0.006,0.0062 -0.012,0.01233 -0.01803,0.01845 -0.006,0.0061 -0.01197,0.01209 -0.01804,0.01808 -0.006,0.0059 -0.01198,0.01179 -0.01805,0.01763 -0.006,0.0057 -0.012,0.0114 -0.01804,0.01706 -0.006,0.0056 -0.01198,0.01128 -0.01805,0.01682 -0.006,0.0054 -0.01201,0.01077 -0.01805,0.01613 -0.006,0.0053 -0.01195,0.01074 -0.01804,0.016 -0.006,0.0052 -0.01203,0.0102 -0.01805,0.01528 -0.006,0.0051 -0.01197,0.0102 -0.01804,0.01519 -0.006,0.0049 -0.01203,0.0097 -0.01803,0.01453 -0.006,0.0048 -0.01198,0.0097 -0.01805,0.01444 -0.006,0.0047 -0.01201,0.0092 -0.01804,0.01382 -0.006,0.0046 -0.01198,0.0092 -0.01805,0.01372 -0.006,0.0044 -0.01201,0.0088 -0.01804,0.01317 -0.006,0.0044 -0.01198,0.0088 -0.01805,0.01306 -0.006,0.0042 -0.01201,0.0083 -0.01804,0.01251 -0.006,0.0042 -0.01198,0.0084 -0.01805,0.01246 -0.006,0.004 -0.01201,0.0079 -0.01804,0.01188 -0.006,0.004 -0.01197,0.008 -0.01804,0.01186 -0.006,0.0038 -0.01204,0.0075 -0.01805,0.01128 -0.006,0.0038 -0.01198,0.0076 -0.01804,0.01125 -0.006,0.0036 -0.01203,0.0072 -0.01805,0.01074 -0.006,0.0036 -0.012,0.0072 -0.01804,0.01066 -0.006,0.0035 -0.01201,0.0069 -0.01805,0.01026 l -0.01804,0.01008 -0.01805,0.0098 -0.01803,0.0095 c -0.006,0.0031 -0.012,0.0063 -0.01804,0.0093 -0.006,0.003 -0.01201,0.006 -0.01805,0.009 -0.006,0.003 -0.01198,0.006 -0.01804,0.0089 -0.006,0.0029 -0.01204,0.0056 -0.01805,0.0084 -0.006,0.0028 -0.012,0.0057 -0.01803,0.0084 -0.006,0.0027 -0.01204,0.0053 -0.01805,0.008 l -0.01803,0.0079 -0.01805,0.0077 -0.01803,0.0074 c -0.006,0.0024 -0.01201,0.0049 -0.01805,0.0073 -0.006,0.0024 -0.01203,0.0046 -0.01804,0.0068 -0.006,0.0023 -0.012,0.0046 -0.01805,0.0069 -0.006,0.0022 -0.01201,0.0043 -0.01804,0.0065 l -0.01805,0.0064 -0.01804,0.0062 c -0.006,0.002 -0.01203,0.0039 -0.01805,0.0059 -0.006,0.0019 -0.012,0.004 -0.01804,0.0059 -0.006,0.0019 -0.01203,0.0036 -0.01804,0.0054 l -0.01805,0.0054 -0.01804,0.0051 c -0.006,0.0017 -0.01203,0.0033 -0.01805,0.0049 -0.006,0.0016 -0.01198,0.0033 -0.01804,0.0049 -0.006,0.0015 -0.01203,0.0029 -0.01805,0.0044 -0.006,0.0015 -0.01201,0.003 -0.01804,0.0044 l -0.01805,0.0042 -0.01803,0.0039 c -0.006,0.0013 -0.012,0.0027 -0.01804,0.0039 -0.006,0.0012 -0.01204,0.0023 -0.01805,0.0035 l -0.01804,0.0034 -0.01805,0.0033 c -0.006,0.001 -0.01201,0.002 -0.01803,0.003 -0.006,9.88e-4 -0.01201,0.0021 -0.01805,0.003 -0.006,9.29e-4 -0.01203,0.0017 -0.01803,0.0026 l -0.01805,0.0025 c -0.006,8.09e-4 -0.01201,0.0016 -0.01803,0.0024 -0.006,7.49e-4 -0.01203,0.0014 -0.01803,0.0021 -0.006,6.89e-4 -0.01201,0.0014 -0.01805,0.0021 -0.006,6.29e-4 -0.01201,0.0012 -0.01803,0.0017 l -0.01805,0.0016 c -0.006,5.1e-4 -0.012,0.0011 -0.01803,0.0016 -0.006,4.5e-4 -0.01203,7.49e-4 -0.01805,0.0011 l -0.01805,0.0012 -0.01803,9.59e-4 c -0.006,2.84e-4 -0.01203,4.49e-4 -0.01804,6.74e-4 -0.006,2.24e-4 -0.01203,5.09e-4 -0.01805,6.89e-4 -0.006,1.65e-4 -0.01201,2.24e-4 -0.01803,3.44e-4 l -0.01805,2.4e-4 c -0.0056,4.5e-5 -0.0112,2.1e-4 -0.01684,2.1e-4 l -0.0012,0 -0.01805,0 -0.01803,0 -0.01805,0 -0.01803,0 -0.01803,0 -0.01805,0 -0.01803,0 -0.01805,0 -0.01803,0 -0.01805,0 -0.01803,0 -0.01805,0 -0.01803,0 -0.01803,0 -0.01805,0 -0.01803,0 -0.01805,0 -0.01803,0 -0.01805,0 -0.01804,0 -0.01803,0 -0.01805,0 -0.01803,0 -0.01805,0 -0.01805,0 -0.01804,0 -0.01805,0 -0.01803,0 -0.01805,0 -0.01803,0 -0.01804,0 -0.01805,0 -0.01804,0 -0.01805,0 -0.01803,0 -0.01805,0 -0.01803,0 -0.01804,0 -0.01805,0 -0.01803,0 -0.01805,0 -0.01803,0 -0.01805,0 -0.01803,0 -0.01805,0 -0.01803,0 -0.01803,0 -0.01805,0 -0.01803,0 -0.01805,0 -0.01803,0 -0.01805,0 -0.01803,0 -0.01805,0 -0.01805,0 -0.01803,0 -0.01804,0 -0.01805,0 -0.01804,0 -0.01805,0 -0.01803,0 -0.01805,0 -0.01803,0 -0.01804,0 -0.01805,0 -0.01803,0 -0.01805,0 -0.01803,0 -0.01805,0 -0.01803,0 -0.01805,0 -0.01803,0 -0.01805,0 -0.01803,0 -0.01805,0 -0.01804,0 -0.01803,0 -0.01805,0 -0.01803,0 -0.01805,0 -0.01804,0 -0.01805,0 -0.01803,0 -0.01805,0 -0.01803,0 -0.01805,0 -0.01804,0 -0.01805,0 -0.01804,0 -0.01803,0 -0.01805,0 -0.01804,0 -0.01805,0 -0.01804,0 -0.01805,0 -0.01803,0 -0.01805,0 -0.01803,0 -0.01804,0 -0.01805,0 -0.01803,0 -0.01805,0 -0.01803,0 -0.01805,0 -0.01803,0 -0.01805,0 -0.01803,0 -0.01805,0 -0.01803,0 -0.01805,0 -0.01803,0 -0.01803,0 -0.01805,0 -0.01803,0 -0.01805,0 -0.01803,0 -0.01805,0 -0.01804,0 -0.01805,0 -0.01804,0 -0.01805,0 -0.01803,0 -0.01805,0 -0.01803,0 -0.01802,0 -0.01805,0 -0.01803,0 -0.01805,0 -0.01803,0 -0.01805,0 -0.01803,0 -0.01805,0 -0.01804,0 -0.01805,0 -0.01804,0 -0.01805,0 -0.01803,0 -0.01803,0 -0.01805,0 -0.01804,0 -0.01805,0 -0.01803,0 -0.01805,0 -0.01804,0 -0.01803,0 -0.01805,0 -0.01803,0 -0.01805,0 -0.01805,0 -0.01803,0 -0.03874,0 0,-4.323234 c 0.01264,0.01084 0.02558,0.02156 0.03874,0.03219 0.006,0.0048 0.01198,0.0096 0.01803,0.01438 0.006,0.0047 0.01198,0.0094 0.01805,0.01405 0.006,0.0046 0.01197,0.0092 0.01805,0.01372 0.0059,0.0044 0.012,0.0088 0.01803,0.01324 0.006,0.0043 0.012,0.0087 0.01805,0.01297 0.006,0.0042 0.01197,0.0085 0.01803,0.01269 l 0.01804,0.01236 c 0.006,0.004 0.012,0.008 0.01805,0.01201 l 0.01803,0.01177 c 0.006,0.0039 0.01198,0.0077 0.01805,0.01153 0.0059,0.0037 0.012,0.0075 0.01804,0.01117 l 0.01805,0.01098 c 0.006,0.0036 0.01198,0.0072 0.01803,0.01074 0.006,0.0035 0.012,0.0069 0.01803,0.01041 l 0.01805,0.01026 0.01804,0.01 0.01805,0.0098 c 0.006,0.0032 0.01197,0.0064 0.01804,0.0096 0.006,0.0031 0.01201,0.0062 0.01805,0.0093 l 0.01803,0.0092 0.01805,0.009 0.01803,0.0087 c 0.006,0.0029 0.01198,0.0058 0.01805,0.0086 l 0.01803,0.0083 0.01805,0.0083 0.01802,0.008 0.01803,0.0079 0.01805,0.0077 0.01803,0.0075 0.01805,0.0074 0.01804,0.0072 0.01805,0.0071 0.01804,0.0069 c 0.006,0.0023 0.01198,0.0046 0.01805,0.0068 l 0.01803,0.0066 c 0.006,0.0022 0.01198,0.0044 0.01805,0.0066 0.006,0.0021 0.01203,0.0042 0.01803,0.0063 l 0.01805,0.0063 0.01803,0.006 c 0.006,0.002 0.01197,0.0041 0.01803,0.006 0.006,0.002 0.01203,0.0038 0.01805,0.0058 l 0.01803,0.0058 0.01805,0.0055 0.01803,0.0055 0.01805,0.0053 0.01803,0.0053 0.01805,0.0051 0.01803,0.005 0.01805,0.0049 0.01803,0.0048 0.01805,0.0047 0.01804,0.0046 0.01803,0.0045 0.01805,0.0044 0.01803,0.0044 0.01805,0.0042 0.01804,0.0041 0.01805,0.004 0.01804,0.0039 0.01805,0.0039 0.01803,0.0037 0.01804,0.0037 0.01805,0.0035 0.01804,0.0035 0.01805,0.0034 0.01803,0.0033 0.01805,0.0033 0.01803,0.0031 0.01805,0.0031 0.01804,0.003 0.01805,0.0029 0.01803,0.0029 0.01805,0.0027 0.01803,0.0028 0.01804,0.0026 0.01805,0.0026 0.01803,0.0025 0.01805,0.0024 0.01803,0.0024 0.01805,0.0023 0.01803,0.0022 0.01805,0.0022 0.01803,0.0021 0.01805,0.002 0.01803,0.002 0.01805,0.0019 0.01804,0.0019 0.01803,0.0018 0.01805,0.0017 0.01803,0.0017 0.01805,0.0016 0.01804,0.0015 0.01805,0.0015 0.01804,0.0014 0.01803,0.0014 0.01805,0.0014 0.01805,0.0012 0.01803,0.0012 0.01805,0.0012 0.01803,0.001 0.01805,0.001 0.01803,0.001 0.01805,8.84e-4 0.01803,8.99e-4 0.01803,8.84e-4 0.01805,7.33e-4 0.01803,7.49e-4 0.01805,7.19e-4 0.01803,6e-4 0.01805,5.99e-4 0.01803,5.84e-4 0.01805,4.49e-4 0.01804,4.5e-4 0.01803,4.49e-4 0.01805,3.15e-4 0.01803,2.99e-4 0.01805,3.15e-4 0.01804,1.8e-4 0.01805,1.64e-4 0.01804,1.65e-4 0.01803,7.5e-5 0.01805,3e-5 0.01803,3e-5 0.01805,-4.5e-5 0.01804,-1.05e-4 0.01805,-1.05e-4 0.01805,-1.5e-4 0.01803,-2.39e-4 0.01805,-2.4e-4 0.01803,-2.4e-4 0.01804,-3.74e-4 0.01805,-3.6e-4 0.01803,-3.74e-4 0.01805,-4.64e-4 0.01803,-4.95e-4 0.01805,-5.09e-4 0.01803,-5.39e-4 0.01803,-6.29e-4 0.01805,-6.14e-4 0.01803,-6.3e-4 0.01805,-7.49e-4 0.01803,-7.49e-4 0.01805,-7.48e-4 0.0088,-3.75e-4 0.0092,-4.49e-4 0.01805,-8.69e-4 0.01803,-9.59e-4 0.01803,-9.88e-4 0.01805,-0.0011 0.01803,-0.0011 0.01805,-0.0012 0.01803,-0.0012 0.01805,-0.0013 0.01803,-0.0013 0.01805,-0.0014 0.01804,-0.0015 0.01803,-0.0015 0.01805,-0.0016 0.01805,-0.0016 0.01803,-0.0017 0.01805,-0.0017 0.01803,-0.0018 0.01805,-0.0018 0.01803,-0.0019 0.01803,-0.0019 0.01805,-0.002 0.01803,-0.002 0.01805,-0.0021 0.01803,-0.0021 0.01805,-0.0022 0.01804,-0.0022 0.01805,-0.0023 0.01804,-0.0023 0.01803,-0.0023 0.01805,-0.0024 0.01804,-0.0024 0.01805,-0.0025 0.01804,-0.0025 0.01805,-0.0025 0.01804,-0.0026 0.01805,-0.0026 0.01804,-0.0027 0.01804,-0.0027 0.01805,-0.0027 0.01804,-0.0028 0.01805,-0.0028 0.01804,-0.0029 0.01805,-0.0029 0.01804,-0.0029 0.01805,-0.003 0.01803,-0.003 0.01805,-0.0031 0.01803,-0.0031 0.01805,-0.0031 0.01803,-0.0032 0.01805,-0.0032 0.01804,-0.0032 0.01805,-0.0033 0.01804,-0.0033 0.01803,-0.0033 0.01805,-0.0034 0.01804,-0.0034 0.01805,-0.0034 0.01804,-0.0035 0.01805,-0.0035 0.01804,-0.0036 0.01805,-0.0036 0.01804,-0.0036 0.01804,-0.0037 0.01805,-0.0037 0.01804,-0.0037 0.01805,-0.0038 0.01804,-0.0038 0.01805,-0.0039 0.01804,-0.0039 0.01805,-0.0039 0.01803,-0.004 0.01804,-0.004 0.01805,-0.004 0.01804,-0.0041 0.01805,-0.0041 0.01805,-0.0042 0.01804,-0.0042 0.01805,-0.0043 0.01804,-0.0043 0.01794,-0.0044 0,-0.792064 -0.01794,0.0089 -0.01804,0.0089 -0.01805,0.0088 -0.01804,0.0087 -0.01805,0.0087 -0.01805,0.0086 -0.01804,0.0085 -0.01805,0.0084 -0.01804,0.0083 -0.01803,0.0082 -0.01805,0.0081 -0.01804,0.0081 -0.01805,0.0079 -0.01804,0.0078 -0.01805,0.0078 -0.01804,0.0077 -0.01805,0.0076 -0.01804,0.0075 -0.01804,0.0074 -0.01805,0.0073 -0.01804,0.0072 -0.01805,0.0071 -0.01804,0.007 -0.01805,0.0069 -0.01804,0.0068 -0.01805,0.0067 -0.01803,0.0066 -0.01804,0.0065 -0.01805,0.0064 -0.01804,0.0063 -0.01805,0.0062 -0.01803,0.0061 -0.01805,0.006 -0.01803,0.0059 -0.01805,0.0058 -0.01803,0.0057 -0.01805,0.0055 -0.01804,0.0055 -0.01805,0.0054 -0.01804,0.0052 -0.01805,0.0052 -0.01804,0.005 -0.01805,0.0049 -0.01804,0.0048 -0.01804,0.0047 -0.01805,0.0046 -0.01804,0.0045 -0.01805,0.0044 -0.01804,0.0043 -0.01805,0.0042 -0.01804,0.0041 -0.01805,0.004 -0.01803,0.0039 -0.01804,0.0038 -0.01805,0.0037 -0.01804,0.0036 -0.01805,0.0035 -0.01803,0.0034 -0.01805,0.0033 -0.01803,0.0032 -0.01805,0.0031 -0.01803,0.003 -0.01803,0.0029 -0.01805,0.0028 -0.01803,0.0027 -0.01805,0.0026 -0.01803,0.0025 -0.01805,0.0024 -0.01805,0.0023 -0.01803,0.0022 -0.01804,0.0022 -0.01805,0.002 -0.01803,0.0019 -0.01805,0.0019 -0.01803,0.0017 -0.01805,0.0017 -0.01803,0.0016 -0.01805,0.0015 -0.01093,8.69e-4 -0.0071,4.79e-4 -0.01803,0.0012 -0.01805,0.0012 -0.01803,9.74e-4 -0.01805,9.13e-4 -0.01803,8.39e-4 -0.01805,5.84e-4 -0.01803,5.85e-4 -0.01805,3.89e-4 -0.01803,2.7e-4 -0.01803,2.24e-4 c -0.0061,3e-5 -0.01203,-4.5e-5 -0.01805,-6e-5 l -0.01803,-5.9e-5 -0.01805,-2.7e-4 -0.01803,-3.9e-4 -0.01805,-4.64e-4 c -0.0061,-1.95e-4 -0.01203,-4.94e-4 -0.01804,-7.34e-4 -0.006,-2.4e-4 -0.01206,-4.34e-4 -0.01803,-7.34e-4 l -0.01805,-0.001 -0.01803,-0.0011 -0.01805,-0.0012 -0.01805,-0.0014 c -0.006,-4.94e-4 -0.01206,-9.14e-4 -0.01804,-0.0015 -0.0061,-5.54e-4 -0.01203,-0.0012 -0.01805,-0.0018 l -0.01803,-0.0018 -0.01805,-0.0021 -0.01803,-0.0022 -0.01804,-0.0024 -0.01805,-0.0026 c -0.006,-8.84e-4 -0.01206,-0.0017 -0.01804,-0.0027 -0.0061,-9.44e-4 -0.01204,-0.002 -0.01805,-0.003 -0.006,-0.001 -0.01207,-0.0019 -0.01803,-0.003 -0.0061,-0.0011 -0.01203,-0.0023 -0.01805,-0.0034 -0.006,-0.0011 -0.01207,-0.0022 -0.01803,-0.0034 -0.0061,-0.0012 -0.01201,-0.0025 -0.01804,-0.0038 -0.006,-0.0013 -0.01207,-0.0025 -0.01805,-0.0038 -0.0061,-0.0013 -0.01204,-0.0028 -0.01803,-0.0041 l -0.01805,-0.0042 c -0.0061,-0.0015 -0.01204,-0.003 -0.01803,-0.0046 -0.006,-0.0015 -0.01207,-0.0031 -0.01805,-0.0047 -0.0061,-0.0016 -0.01204,-0.0033 -0.01803,-0.005 -0.006,-0.0017 -0.01207,-0.0034 -0.01805,-0.0052 -0.0061,-0.0018 -0.01204,-0.0036 -0.01803,-0.0055 -0.006,-0.0019 -0.01206,-0.0037 -0.01803,-0.0056 -0.0061,-0.0019 -0.01206,-0.004 -0.01805,-0.006 -0.006,-0.002 -0.01207,-0.004 -0.01803,-0.0061 -0.0061,-0.0021 -0.01204,-0.0043 -0.01805,-0.0065 -0.006,-0.0022 -0.01207,-0.0044 -0.01803,-0.0066 -0.0061,-0.0023 -0.01204,-0.0047 -0.01805,-0.0071 -0.006,-0.0024 -0.01207,-0.0047 -0.01803,-0.0072 -0.0061,-0.0025 -0.01204,-0.0051 -0.01805,-0.0077 -0.006,-0.0026 -0.01209,-0.0052 -0.01805,-0.0078 -0.0061,-0.0027 -0.01204,-0.0055 -0.01803,-0.0083 -0.006,-0.0028 -0.01207,-0.0056 -0.01804,-0.0085 -0.0061,-0.0029 -0.01207,-0.0059 -0.01805,-0.0089 -0.0061,-0.0031 -0.01206,-0.0062 -0.01804,-0.0093 -0.006,-0.0032 -0.0121,-0.0063 -0.01805,-0.0095 -0.0061,-0.0033 -0.01204,-0.0067 -0.01803,-0.01013 -0.006,-0.0034 -0.01209,-0.0068 -0.01805,-0.01037 -0.0061,-0.0036 -0.01206,-0.0072 -0.01803,-0.01089 -0.0061,-0.0037 -0.01206,-0.0075 -0.01804,-0.01132 -0.006,-0.0038 -0.01212,-0.0077 -0.01805,-0.01162 -0.0061,-0.004 -0.01204,-0.0082 -0.01803,-0.01237 -0.0061,-0.0042 -0.01209,-0.0084 -0.01805,-0.01275 -0.0061,-0.0044 -0.0121,-0.0087 -0.01803,-0.01318 -0.0061,-0.0046 -0.01207,-0.0093 -0.01805,-0.01396 -0.0061,-0.0048 -0.01207,-0.0096 -0.01803,-0.01442 -0.0061,-0.005 -0.01212,-0.0099 -0.01805,-0.01496 -0.0061,-0.0052 -0.01207,-0.01053 -0.01803,-0.01586 -0.0061,-0.0054 -0.01209,-0.01095 -0.01805,-0.01652 -0.0061,-0.0057 -0.0121,-0.0114 -0.01803,-0.0172 -0.0061,-0.0059 -0.01213,-0.01186 -0.01805,-0.01793 -0.0061,-0.0063 -0.01209,-0.01266 -0.01804,-0.01907 -0.0061,-0.0066 -0.0121,-0.01324 -0.01803,-0.01997 -0.0061,-0.0069 -0.01213,-0.01392 -0.01805,-0.02099 -0.0061,-0.0073 -0.01212,-0.01463 -0.01803,-0.02208 -0.0061,-0.0077 -0.01215,-0.01549 -0.01805,-0.02337 -0.0061,-0.0081 -0.01215,-0.01637 -0.01804,-0.02472 -0.0061,-0.0087 -0.01216,-0.01744 -0.01805,-0.02632 -0.0061,-0.0093 -0.01215,-0.01865 -0.01803,-0.02813 -0.0062,-0.0099 -0.01218,-0.02003 -0.01805,-0.0302 -0.0062,-0.01071 -0.01218,-0.02158 -0.01803,-0.03256 -0.0062,-0.01164 -0.01221,-0.02344 -0.01805,-0.03537 -0.0062,-0.0127 -0.01224,-0.02558 -0.01804,-0.0386 -0.0062,-0.01401 -0.0123,-0.02815 -0.01805,-0.04253 -0.0064,-0.01589 -0.01228,-0.0321 -0.01804,-0.04846 -0.0064,-0.01814 -0.0124,-0.0365 -0.01803,-0.0552 -0.0065,-0.02168 -0.01255,-0.043709 -0.01805,-0.066118 -0.0068,-0.027876 -0.01279,-0.056351 -0.01804,-0.085351 -0.0078,-0.04299 -0.01383,-0.087178 -0.01805,-0.1325649 -0.0049,-0.052412 -0.0073,-0.1064114 -0.0073,-0.1619688 0,-0.055587 0.0025,-0.109617 0.0073,-0.1620737 0.0042,-0.045402 0.01028,-0.089605 0.01805,-0.1326248 0.0052,-0.028999 0.0112,-0.05752 0.01804,-0.085411 0.0055,-0.022409 0.01153,-0.044443 0.01805,-0.066133 0.0056,-0.018694 0.01167,-0.037088 0.01803,-0.055243 0.0058,-0.016357 0.01168,-0.032564 0.01804,-0.048472 0.0058,-0.014395 0.01182,-0.028535 0.01805,-0.042556 0.0058,-0.013032 0.01182,-0.025899 0.01804,-0.038601 0.0058,-0.011938 0.01183,-0.023757 0.01805,-0.035395 0.0059,-0.01098 0.01185,-0.021855 0.01803,-0.03258 0.0059,-0.010186 0.01188,-0.020267 0.01805,-0.030213 0.0059,-0.0095 0.01189,-0.018874 0.01803,-0.028146 0.0059,-0.00888 0.01192,-0.017645 0.01805,-0.026333 0.0059,-0.00834 0.01192,-0.016567 0.01804,-0.024731 0.0059,-0.00788 0.01194,-0.015653 0.01805,-0.023367 0.0059,-0.00744 0.01194,-0.014799 0.01803,-0.022079 0.0059,-0.00709 0.01194,-0.01408 0.01805,-0.021001 0.0059,-0.00673 0.01192,-0.013421 0.01803,-0.019997 0.0059,-0.0064 0.01192,-0.012807 0.01804,-0.019068 0.0059,-0.00607 0.01198,-0.012013 0.01805,-0.017945 0.0059,-0.0058 0.01197,-0.011519 0.01803,-0.017196 0.006,-0.00556 0.01195,-0.0111 0.01805,-0.016537 0.006,-0.00532 0.01194,-0.01065 0.01803,-0.015863 0.0059,-0.00506 0.012,-0.010006 0.01805,-0.014964 0.006,-0.00487 0.01197,-0.00968 0.01803,-0.01444 0.006,-0.0047 0.01195,-0.00939 0.01805,-0.013975 0.0059,-0.00446 0.01198,-0.00882 0.01803,-0.013182 0.006,-0.00431 0.01198,-0.00854 0.01805,-0.012747 0.006,-0.00415 0.01194,-0.00833 0.01803,-0.012373 0.0059,-0.00395 0.01201,-0.00779 0.01805,-0.011639 0.006,-0.00382 0.01197,-0.00761 0.01804,-0.011324 0.006,-0.00367 0.01197,-0.00731 0.01803,-0.01089 0.006,-0.00352 0.01201,-0.00694 0.01805,-0.010366 0.006,-0.0034 0.01195,-0.00682 0.01803,-0.010126 0.0059,-0.00325 0.01201,-0.0064 0.01805,-0.00956 0.006,-0.00313 0.01198,-0.00623 0.01804,-0.00929 0.006,-0.00301 0.012,-0.00599 0.01805,-0.00893 0.006,-0.00289 0.012,-0.00571 0.01804,-0.00852 0.006,-0.00279 0.01197,-0.0056 0.01803,-0.00831 0.006,-0.00267 0.01201,-0.00523 0.01805,-0.00782 0.006,-0.00259 0.01197,-0.0052 0.01805,-0.0077 0.006,-0.00246 0.01201,-0.00481 0.01803,-0.00719 0.006,-0.00238 0.01198,-0.00478 0.01805,-0.00709 0.006,-0.00226 0.01201,-0.00443 0.01803,-0.00664 0.006,-0.00219 0.01198,-0.00439 0.01805,-0.00652 0.006,-0.00208 0.01201,-0.0041 0.01803,-0.00613 0.006,-0.00201 0.012,-0.00401 0.01805,-0.00596 0.006,-0.00192 0.012,-0.00377 0.01803,-0.00563 0.006,-0.00184 0.01198,-0.00367 0.01803,-0.00545 l 0.01805,-0.00515 c 0.006,-0.00168 0.01198,-0.00339 0.01803,-0.005 0.006,-0.0016 0.01201,-0.00313 0.01805,-0.00467 0.006,-0.00153 0.01198,-0.00309 0.01803,-0.00455 l 0.01805,-0.00424 c 0.006,-0.00139 0.01198,-0.00282 0.01803,-0.00415 0.006,-0.00132 0.01203,-0.00255 0.01805,-0.0038 0.006,-0.00126 0.01197,-0.00258 0.01804,-0.00377 0.006,-0.00118 0.01203,-0.00225 0.01803,-0.00337 0.006,-0.00112 0.01198,-0.00231 0.01805,-0.00339 0.006,-0.00106 0.01203,-0.00199 0.01803,-0.003 0.006,-0.001 0.012,-0.00204 0.01805,-0.00298 l 0.01804,-0.00268 0.01805,-0.00258 0.01804,-0.00238 0.01803,-0.00219 0.01805,-0.0021 0.01803,-0.00181 c 0.006,-5.991e-4 0.012,-0.00126 0.01805,-0.00181 0.006,-5.542e-4 0.01203,-9.737e-4 0.01804,-0.00147 l 0.01805,-0.00144 0.01805,-0.00124 0.01803,-0.00108 0.01805,-0.001 c 0.006,-2.996e-4 0.01203,-4.943e-4 0.01803,-7.34e-4 0.006,-2.397e-4 0.01198,-5.392e-4 0.01804,-7.34e-4 l 0.01805,-4.643e-4 0.01803,-3.895e-4 0.01805,-2.696e-4 0.01803,-5.99e-5 c 0.006,-1.5e-5 0.012,-8.99e-5 0.01805,-5.99e-5 l 0.01803,2.247e-4 0.01803,2.696e-4 0.01805,3.894e-4 0.01803,5.842e-4 0.01805,5.842e-4 0.01803,8.388e-4 0.01805,9.138e-4 0.01803,9.736e-4 0.01805,0.0012 0.01803,0.00121 0.0071,4.794e-4 0.01093,8.687e-4 0.01805,0.00144 0.01803,0.00156 0.01805,0.00165 0.01803,0.00172 0.01805,0.00184 0.01803,0.00193 0.01805,0.00201 0.01804,0.00211 0.01803,0.00222 0.01805,0.00229 0.01805,0.0024 0.01803,0.00252 0.01805,0.00258 0.01803,0.00268 0.01805,0.0028 0.01803,0.00289 0.01803,0.00297 0.01805,0.0031 0.01803,0.00319 0.01805,0.00328 0.01803,0.00337 0.01805,0.00349 0.01804,0.00358 0.01805,0.00368 0.01804,0.00379 0.01803,0.00389 0.01805,0.004 0.01804,0.00407 0.01805,0.00419 0.01804,0.00431 0.01805,0.0044 0.01804,0.00449 0.01805,0.00461 0.01804,0.00472 0.01804,0.00481 0.01805,0.00493 0.01804,0.00503 0.01805,0.00512 0.01804,0.00524 0.01805,0.00535 0.01804,0.00545 0.01805,0.00554 0.01803,0.00565 0.01805,0.00577 0.01803,0.00587 0.01805,0.00598 0.01803,0.00608 0.01805,0.00617 0.01804,0.00628 0.01805,0.00641 0.01804,0.0065 0.01803,0.00659 0.01805,0.00671 0.01804,0.00682 0.01805,0.00692 0.01804,0.00701 0.01805,0.00712 0.01804,0.00722 0.01805,0.00732 0.01804,0.00743 0.01804,0.00753 0.01805,0.00762 0.01804,0.00773 0.01805,0.00782 0.01804,0.00792 0.01805,0.008 0.01804,0.00812 0.01805,0.00821 0.01803,0.0083 0.01804,0.00839 0.01805,0.00849 0.01804,0.00857 0.01805,0.00866 0.01805,0.00875 0.01804,0.00884 0.01805,0.00891 0.01804,0.009 0.01794,0.00902 0,-0.7926332 -0.01794,-0.00443 -0.01804,-0.00434 -0.01805,-0.00428 -0.01804,-0.00424 -0.01805,-0.00418 -0.01805,-0.00412 -0.01804,-0.00409 -0.01805,-0.00404 -0.01804,-0.00398 -0.01803,-0.00397 -0.01805,-0.00391 -0.01804,-0.00386 -0.01805,-0.00386 -0.01804,-0.00379 -0.01805,-0.00376 -0.01804,-0.00373 -0.01805,-0.0037 -0.01804,-0.00365 -0.01804,-0.00362 -0.01805,-0.00358 -0.01804,-0.00354 -0.01805,-0.00353 -0.01804,-0.00348 -0.01805,-0.00345 -0.01804,-0.0034 -0.01805,-0.00337 -0.01803,-0.00334 -0.01804,-0.0033 -0.01805,-0.00327 -0.01804,-0.00324 -0.01805,-0.00319 -0.01803,-0.00316 -0.01805,-0.00313 -0.01803,-0.00307 -0.01805,-0.00306 -0.01803,-0.00301 -0.01805,-0.00298 -0.01804,-0.00294 -0.01805,-0.00289 -0.01804,-0.00288 -0.01805,-0.00282 -0.01804,-0.0028 -0.01805,-0.00274 -0.01804,-0.00271 -0.01804,-0.00268 -0.01805,-0.00262 -0.01804,-0.00259 -0.01805,-0.00255 -0.01804,-0.0025 -0.01805,-0.00247 -0.01804,-0.00243 -0.01805,-0.0024 -0.01803,-0.00232 -0.01804,-0.00231 -0.01805,-0.00226 -0.01804,-0.00222 -0.01805,-0.00216 -0.01803,-0.00211 -0.01805,-0.00208 -0.01803,-0.00202 -0.01805,-0.00199 -0.01803,-0.00192 -0.01803,-0.0019 -0.01805,-0.00181 -0.01803,-0.0018 -0.01805,-0.00174 -0.01803,-0.00169 -0.01805,-0.00162 -0.01805,-0.00159 -0.01803,-0.00153 -0.01804,-0.00147 -0.01805,-0.00142 -0.01803,-0.00133 -0.01805,-0.00133 -0.01803,-0.00121 -0.01805,-0.00121 -0.01803,-0.00109 -0.01805,-0.00108 -0.01803,-9.886e-4 -0.01803,-9.437e-4 -0.01805,-8.688e-4 -0.0092,-4.344e-4 -0.0088,-3.745e-4 -0.01805,-7.489e-4 -0.01803,-7.49e-4 -0.01805,-7.489e-4 -0.01803,-6.291e-4 -0.01805,-6.142e-4 -0.01803,-6.291e-4 -0.01803,-5.392e-4 -0.01805,-5.093e-4 -0.01803,-4.943e-4 -0.01805,-4.644e-4 -0.01803,-3.745e-4 -0.01805,-3.595e-4 -0.01804,-3.744e-4 -0.01803,-2.397e-4 -0.01805,-2.397e-4 -0.01803,-2.396e-4 -0.01805,-1.498e-4 -0.01805,-8.99e-5 -0.01804,-1.049e-4 -0.01805,-4.49e-5 -0.01803,3e-5 -0.01805,2.99e-5 -0.01803,5.99e-5 -0.01804,1.648e-4 -0.01805,1.798e-4 -0.01804,1.797e-4 -0.01805,3.146e-4 -0.01803,2.995e-4 -0.01805,3.146e-4 -0.01803,4.494e-4 -0.01804,4.493e-4 -0.01805,4.494e-4 -0.01803,5.842e-4 -0.01805,5.992e-4 -0.01803,5.991e-4 -0.01805,7.34e-4 -0.01803,7.49e-4 -0.01805,7.339e-4 -0.01803,8.838e-4 -0.01803,8.987e-4 -0.01805,8.838e-4 -0.01803,0.00103 -0.01805,0.00105 -0.01803,0.00105 -0.01805,0.0012 -0.01803,0.00121 -0.01805,0.00121 -0.01805,0.00138 -0.01803,0.00136 -0.01804,0.00141 -0.01805,0.00153 -0.01804,0.00151 -0.01805,0.0016 -0.01803,0.00169 -0.01805,0.00169 -0.01803,0.0018 -0.01804,0.00187 -0.01805,0.00186 -0.01803,0.00202 -0.01805,0.00202 -0.01803,0.00207 -0.01805,0.00222 -0.01803,0.0022 -0.01805,0.00232 -0.01803,0.00238 -0.01805,0.00238 -0.01803,0.00255 -0.01805,0.00256 -0.01804,0.00264 -0.01803,0.00276 -0.01805,0.00274 -0.01803,0.00291 -0.01805,0.00295 -0.01804,0.00301 -0.01805,0.00312 -0.01803,0.00313 -0.01805,0.0033 -0.01803,0.00334 -0.01805,0.00342 -0.01804,0.00352 -0.01805,0.00354 -0.01804,0.00373 -0.01803,0.00373 -0.01805,0.00386 -0.01804,0.00394 -0.01805,0.00401 -0.01804,0.00415 -0.01805,0.00416 -0.01803,0.00437 -0.01805,0.00437 -0.01803,0.00454 -0.01804,0.0046 -0.01805,0.00473 -0.01803,0.00482 -0.01805,0.00491 -0.01803,0.00505 -0.01805,0.00512 -0.01803,0.00529 -0.01805,0.00532 -0.01803,0.00553 -0.01805,0.00556 -0.01803,0.00578 c -0.006,0.00193 -0.01209,0.00382 -0.01805,0.00578 l -0.01803,0.00604 c -0.006,0.00201 -0.01207,0.00398 -0.01803,0.00604 l -0.01805,0.00629 -0.01803,0.00629 c -0.0061,0.00216 -0.01204,0.00439 -0.01805,0.00658 -0.006,0.00219 -0.01207,0.00434 -0.01803,0.00658 l -0.01805,0.00685 c -0.006,0.00229 -0.01207,0.00454 -0.01804,0.00686 l -0.01805,0.00713 -0.01804,0.00719 -0.01805,0.00741 -0.01803,0.00752 -0.01805,0.0077 -0.01803,0.00788 -0.01802,0.008 -0.01805,0.00825 -0.01803,0.00833 c -0.0061,0.00285 -0.01204,0.00575 -0.01805,0.00863 l -0.01803,0.00873 -0.01805,0.00897 -0.01803,0.00917 c -0.006,0.0031 -0.01209,0.00617 -0.01805,0.0093 -0.0061,0.00318 -0.01204,0.00641 -0.01804,0.00963 l -0.01805,0.00977 -0.01804,0.00999 c -0.0061,0.0034 -0.01206,0.00683 -0.01805,0.010276 -0.006,0.00346 -0.01207,0.00691 -0.01803,0.01041 -0.0061,0.00355 -0.01204,0.00715 -0.01803,0.01074 -0.0061,0.00364 -0.01207,0.00731 -0.01805,0.010995 -0.006,0.00371 -0.01209,0.00743 -0.01804,0.011174 -0.0061,0.00382 -0.01207,0.00768 -0.01805,0.011534 l -0.01803,0.011789 c -0.0061,0.004 -0.01209,0.00797 -0.01805,0.012013 l -0.01804,0.012373 c -0.0061,0.00421 -0.01206,0.00845 -0.01803,0.012687 -0.0061,0.0043 -0.01209,0.00863 -0.01805,0.012987 -0.006,0.0044 -0.01209,0.00879 -0.01803,0.013241 -0.0061,0.00455 -0.01206,0.00914 -0.01805,0.013736 -0.0061,0.00466 -0.01207,0.00935 -0.01805,0.01405 -0.0061,0.00476 -0.01207,0.00956 -0.01803,0.01438 l 0,-1.5e-5 z"
   class="fil3" />
</svg>